<?xml version="1.0" encoding="UTF-8" standalone="no"?>
<svg
   xmlns:dc="http://purl.org/dc/elements/1.1/"
   xmlns:cc="http://creativecommons.org/ns#"
   xmlns:rdf="http://www.w3.org/1999/02/22-rdf-syntax-ns#"
   xmlns:svg="http://www.w3.org/2000/svg"
   xmlns="http://www.w3.org/2000/svg"
   xmlns:sodipodi="http://sodipodi.sourceforge.net/DTD/sodipodi-0.dtd"
   xmlns:inkscape="http://www.inkscape.org/namespaces/inkscape"
   version="1.0"
   width="4000cm"
   height="4000cm"
   viewBox="0 0 113385.83 113385.83"
   preserveAspectRatio="xMidYMid meet"
   id="svg3730"
   inkscape:version="0.91 r13725"
   sodipodi:docname="kirill.svg">
  <defs
     id="defs4068" />
  <sodipodi:namedview
     pagecolor="#ffffff"
     bordercolor="#666666"
     borderopacity="1"
     objecttolerance="10"
     gridtolerance="10"
     guidetolerance="10"
     inkscape:pageopacity="0"
     inkscape:pageshadow="2"
     inkscape:window-width="3838"
     inkscape:window-height="2132"
     id="namedview4066"
     showgrid="false"
     inkscape:zoom="0.01"
     inkscape:cx="83308.837"
     inkscape:cy="110011.59"
     inkscape:window-x="0"
     inkscape:window-y="26"
     inkscape:window-maximized="0"
     inkscape:current-layer="svg3730"
     units="m" />
  <metadata
     id="metadata3732">
Created by potrace 1.15, written by Peter Selinger 2001-2017
<rdf:RDF>
  <cc:Work
     rdf:about="">
    <dc:format>image/svg+xml</dc:format>
    <dc:type
       rdf:resource="http://purl.org/dc/dcmitype/StillImage" />
    <dc:title></dc:title>
  </cc:Work>
</rdf:RDF>
</metadata>
  <g
     transform="matrix(19.242647,0,0,-19.242647,8070.9662,103172.44)"
     id="g3734"
     style="fill:#000000;stroke:none">
    <path
       d="m 2379,4847 c -9,-12 -19,-36 -22,-54 l -6,-31 25,23 c 18,17 25,32 22,53 -3,30 -3,30 -19,9 z"
       id="path3738"
       inkscape:connector-curvature="0" />
    <path
       d="m 2291,4810 c -33,-19 -51,-37 -51,-52 0,-17 22,-7 27,12 3,12 14,20 27,20 22,0 46,17 46,32 0,12 -11,9 -49,-12 z"
       id="path3740"
       inkscape:connector-curvature="0" />
    <path
       d="m 2441,4817 c -29,-29 -2,-49 32,-24 16,11 16,13 -2,24 -14,9 -21,9 -30,0 z"
       id="path3742"
       inkscape:connector-curvature="0" />
    <path
       d="m 2540,4820 c -8,-5 -12,-11 -10,-13 10,-10 75,-11 77,-2 2,6 -5,10 -15,10 -9,1 -22,4 -27,7 -6,4 -17,3 -25,-2 z"
       id="path3744"
       inkscape:connector-curvature="0" />
    <path
       d="m 2680,4812 c -21,-7 -9,-24 13,-18 12,3 42,-2 66,-10 31,-11 46,-12 51,-4 5,7 11,6 20,-5 7,-8 19,-15 26,-15 8,0 14,-4 14,-10 0,-5 7,-10 15,-10 25,0 17,19 -17,40 -18,11 -50,20 -70,20 -20,0 -39,4 -43,10 -5,8 -51,10 -75,2 z"
       id="path3746"
       inkscape:connector-curvature="0" />
    <path
       d="m 2911,4775 c 0,-30 24,-70 34,-56 5,9 16,3 38,-19 17,-18 33,-27 35,-21 6,19 -27,61 -47,61 -11,0 -29,12 -40,28 -18,24 -20,25 -20,7 z"
       id="path3748"
       inkscape:connector-curvature="0" />
    <path
       d="m 2200,4764 c 0,-11 -6,-14 -20,-9 -16,5 -20,2 -20,-15 0,-18 4,-20 23,-14 12,4 25,12 29,18 11,16 10,36 -2,36 -5,0 -10,-7 -10,-16 z"
       id="path3750"
       inkscape:connector-curvature="0" />
    <path
       d="m 2116,4758 c -5,-10 -14,-18 -22,-18 -8,0 -14,-4 -14,-10 0,-5 -7,-10 -15,-10 -8,0 -15,7 -15,15 0,8 -4,15 -10,15 -17,0 -11,-27 8,-36 30,-13 73,-12 79,1 2,8 3,24 1,37 -4,20 -6,21 -12,6 z"
       id="path3752"
       inkscape:connector-curvature="0" />
    <path
       d="m 1980,4695 c -6,-15 -20,-40 -31,-56 -19,-28 -21,-28 -49,-14 -37,19 -39,19 -34,-2 3,-13 -7,-23 -37,-38 -23,-10 -44,-25 -46,-33 -3,-7 -21,-19 -39,-27 -19,-8 -34,-19 -34,-25 0,-10 -30,-42 -106,-112 -48,-45 -74,-75 -74,-83 0,-5 -10,-19 -22,-32 -19,-20 -20,-25 -8,-33 13,-8 12,-12 -7,-25 -27,-19 -66,-82 -59,-94 4,-5 -2,-25 -12,-43 -10,-18 -19,-40 -20,-48 -1,-8 -4,-33 -6,-56 -2,-22 -9,-57 -15,-77 -7,-20 -10,-41 -6,-47 3,-5 1,-19 -5,-30 -13,-24 -17,-213 -6,-247 9,-28 6,-28 -39,-2 -34,20 -37,20 -61,4 -23,-15 -25,-22 -21,-58 3,-23 12,-121 21,-217 27,-285 34,-336 56,-392 50,-125 58,-136 116,-175 l 57,-38 28,-127 c 16,-70 40,-160 54,-199 17,-50 25,-94 25,-140 0,-72 13,-99 24,-48 11,58 6,105 -19,180 -14,41 -37,121 -50,179 -43,179 -41,176 -89,204 -52,30 -94,77 -102,114 -3,15 -14,43 -24,62 -23,44 -34,96 -22,104 5,3 4,39 -4,88 -19,130 -36,250 -40,288 l -3,35 8,-33 c 13,-51 21,-50 21,4 0,29 -6,59 -15,70 -20,26 -20,84 0,84 25,0 72,-28 89,-52 23,-33 31,-14 18,41 -9,41 -9,55 3,78 17,32 19,47 6,38 -16,-10 -19,8 -9,60 16,87 18,125 8,125 -6,0 -10,5 -10,10 0,6 7,10 16,10 8,0 12,5 9,11 -9,14 18,67 55,108 44,48 30,50 -19,2 -30,-30 -40,-35 -38,-21 2,11 6,23 10,26 4,4 7,16 7,26 0,10 5,18 10,18 6,0 10,8 10,19 0,10 7,24 15,31 11,9 12,16 5,25 -10,12 27,74 63,104 21,17 22,35 2,27 -8,-3 -15,-1 -15,5 0,5 6,12 13,14 6,3 34,32 61,65 27,33 59,63 70,66 12,3 32,13 45,21 18,12 21,17 10,23 -23,15 20,53 52,46 33,-6 50,11 42,42 -4,16 0,23 13,28 11,3 27,10 36,15 10,5 31,9 48,9 19,0 30,5 30,14 0,15 42,46 62,46 16,0 16,56 0,72 -8,8 -14,4 -22,-17 z"
       id="path3756"
       inkscape:connector-curvature="0" />
    <path
       d="m 3075,4690 c -3,-5 1,-19 9,-31 8,-12 12,-27 10,-34 -3,-7 0,-16 7,-21 8,-5 11,-2 6,8 -3,9 -1,20 4,25 7,7 6,19 -2,36 -13,28 -24,34 -34,17 z"
       id="path3758"
       inkscape:connector-curvature="0" />
    <path
       d="m 3167,4634 c -13,-23 38,-85 56,-68 3,3 8,-13 12,-35 4,-26 12,-41 21,-41 8,0 19,-11 24,-25 13,-33 29,-32 26,3 -2,19 -9,27 -22,27 -14,0 -21,11 -27,43 -5,25 -14,42 -22,42 -7,0 -25,14 -38,31 -13,17 -27,27 -30,23 z"
       id="path3760"
       inkscape:connector-curvature="0" />
    <path
       d="m 3340,4450 c -6,-12 -10,-33 -8,-48 3,-23 7,-27 31,-24 15,1 27,-2 27,-8 0,-6 16,-20 35,-31 19,-12 33,-25 30,-30 -13,-21 7,-57 36,-63 33,-6 49,-33 28,-48 -12,-8 -12,-10 1,-15 28,-11 81,-71 84,-95 4,-33 16,-58 30,-58 19,0 36,-16 40,-36 11,-49 37,-96 52,-90 9,3 18,6 20,6 5,0 -1,13 -34,77 -12,23 -22,49 -22,57 0,8 -9,20 -20,26 -11,6 -20,17 -20,24 0,8 -25,40 -56,71 -34,35 -53,63 -50,72 8,21 -20,46 -43,38 -18,-5 -19,-2 -16,35 3,31 0,40 -12,40 -22,0 -73,39 -73,56 0,17 -12,18 -28,2 -6,-6 -15,-9 -19,-5 -4,4 -1,13 5,19 14,14 16,48 2,48 -5,0 -14,-9 -20,-20 z"
       id="path3764"
       inkscape:connector-curvature="0" />
    <path
       d="m 1759,4372 c -13,-15 -30,-37 -37,-50 -12,-22 -12,-22 7,-13 20,11 67,79 59,86 -2,3 -15,-8 -29,-23 z"
       id="path3766"
       inkscape:connector-curvature="0" />
    <path
       d="m 3480,4148 c 0,-9 5,-20 11,-23 6,-4 8,-12 6,-19 -3,-6 6,-19 19,-29 24,-18 24,-18 24,8 0,16 -6,25 -15,25 -8,0 -15,4 -15,8 0,5 -7,17 -15,28 -13,17 -14,17 -15,2 z"
       id="path3774"
       inkscape:connector-curvature="0" />
    <path
       d="m 3700,3879 c 0,-19 34,-69 44,-66 18,6 17,24 -4,50 -22,28 -40,35 -40,16 z"
       id="path3776"
       inkscape:connector-curvature="0" />
    <path
       d="m 3627,3846 c -8,-20 21,-65 42,-66 11,0 11,3 -2,13 -10,6 -21,25 -25,42 -7,24 -9,26 -15,11 z"
       id="path3778"
       inkscape:connector-curvature="0" />
    <path
       d="m 3725,3791 c -3,-6 -2,-27 3,-48 5,-21 5,-52 2,-68 -4,-17 -6,-64 -5,-105 1,-57 -4,-88 -21,-130 -12,-30 -27,-56 -33,-58 -6,-2 -11,-22 -11,-44 0,-50 21,-47 34,5 5,20 13,37 18,37 4,0 8,9 8,21 0,11 5,17 10,14 10,-6 13,16 14,111 1,23 7,49 15,58 11,13 12,22 2,44 -9,18 -9,28 -2,30 10,3 5,116 -6,135 -6,10 -21,9 -28,-2 z"
       id="path3782"
       inkscape:connector-curvature="0" />
    <path
       d="m 1621,3771 c -7,-5 -12,-14 -9,-21 2,-8 11,-5 28,9 17,14 20,20 10,21 -8,0 -21,-4 -29,-9 z"
       id="path3784"
       inkscape:connector-curvature="0" />
    <path
       d="m 2160,3563 c 19,-9 42,-15 52,-14 9,1 19,-3 23,-9 3,-5 14,-10 23,-10 28,1 -50,38 -93,44 l -40,6 35,-17 z"
       id="path3786"
       inkscape:connector-curvature="0" />
    <path
       d="m 1780,3525 c 15,-18 51,-16 58,3 2,8 -8,12 -33,12 -33,0 -36,-2 -25,-15 z"
       id="path3788"
       inkscape:connector-curvature="0" />
    <path
       d="m 1950,3529 c 0,-5 3,-9 8,-10 4,0 26,-2 49,-5 23,-2 45,1 48,6 3,6 -2,11 -12,12 -67,6 -93,5 -93,-3 z"
       id="path3790"
       inkscape:connector-curvature="0" />
    <path
       d="m 2085,3530 c -7,-12 70,-49 102,-50 12,0 25,-4 28,-10 3,-5 13,-10 21,-10 9,0 12,5 8,12 -5,8 -2,9 11,4 15,-5 16,-4 5,9 -7,8 -21,15 -31,15 -10,0 -21,5 -24,10 -4,6 -16,8 -27,4 -11,-3 -23,-2 -27,3 -9,15 -59,24 -66,13 z"
       id="path3792"
       inkscape:connector-curvature="0" />
    <path
       d="m 3633,3440 c 4,-18 7,-40 7,-48 0,-12 3,-13 11,-5 13,13 3,69 -13,79 -8,5 -9,-3 -5,-26 z"
       id="path3794"
       inkscape:connector-curvature="0" />
    <path
       d="m 1443,3421 c 3,-15 1,-33 -5,-39 -6,-6 -13,-27 -15,-47 -4,-43 30,-129 49,-122 7,2 12,10 10,17 -1,7 2,18 9,26 6,8 8,22 4,31 -6,15 -9,13 -19,-12 -12,-27 -13,-28 -19,-10 -7,22 -2,135 8,166 5,14 2,19 -11,19 -13,0 -15,-6 -11,-29 z"
       id="path3796"
       inkscape:connector-curvature="0" />
    <path
       d="m 3080,3440 c 0,-5 8,-10 18,-10 9,0 27,-3 40,-6 14,-4 22,-2 22,6 0,7 -7,10 -15,7 -8,-4 -17,-2 -20,3 -8,13 -45,13 -45,0 z"
       id="path3798"
       inkscape:connector-curvature="0" />
    <path
       d="m 1488,3397 c -5,-47 -4,-52 11,-42 13,8 15,72 2,79 -5,3 -11,-13 -13,-37 z"
       id="path3800"
       inkscape:connector-curvature="0" />
    <path
       d="m 1926,3425 c -21,-7 -43,-18 -49,-24 -19,-19 1,-23 33,-6 18,9 62,23 99,30 l 66,13 -55,1 c -30,0 -72,-6 -94,-14 z"
       id="path3802"
       inkscape:connector-curvature="0" />
    <path
       d="m 2155,3430 c 11,-4 39,-13 62,-19 26,-7 59,-28 88,-56 47,-46 55,-51 55,-37 0,34 -146,123 -199,121 -23,0 -24,-1 -6,-9 z"
       id="path3804"
       inkscape:connector-curvature="0" />
    <path
       d="m 2985,3410 c -3,-5 -19,-10 -36,-10 -31,0 -41,-19 -11,-21 57,-4 132,11 132,27 0,16 -75,20 -85,4 z"
       id="path3806"
       inkscape:connector-curvature="0" />
    <path
       d="m 2020,3396 c -107,-23 -161,-71 -80,-71 32,0 39,3 35,16 -4,10 4,20 20,27 34,16 35,15 35,-8 0,-32 22,-70 42,-70 17,0 17,1 -2,20 -27,27 -25,46 6,66 18,12 28,14 36,6 16,-16 -1,-35 -26,-28 -20,5 -20,4 3,-15 13,-11 29,-18 35,-16 9,3 48,69 43,73 -13,9 -105,9 -147,0 z"
       id="path3808"
       inkscape:connector-curvature="0" />
    <path
       d="m 2180,3349 c -14,-43 -34,-64 -49,-55 -5,4 -12,2 -16,-4 -4,-6 4,-10 19,-10 25,0 66,41 66,66 0,22 24,16 49,-10 19,-20 21,-28 12,-45 -8,-15 -8,-21 -1,-21 6,0 13,6 16,14 3,8 12,12 20,9 8,-3 14,1 14,9 0,16 -50,56 -91,74 -25,11 -27,10 -39,-27 z"
       id="path3810"
       inkscape:connector-curvature="0" />
    <path
       d="m 3567,3380 c -7,-18 -4,-76 4,-85 10,-9 16,47 8,75 -4,18 -8,21 -12,10 z"
       id="path3812"
       inkscape:connector-curvature="0" />
    <path
       d="m 2793,3334 c -40,-20 -75,-45 -78,-55 -4,-11 -13,-19 -21,-19 -13,0 -20,-21 -9,-32 3,-2 28,17 55,44 57,55 84,68 141,68 40,0 52,13 23,24 -26,10 -37,7 -111,-30 z"
       id="path3814"
       inkscape:connector-curvature="0" />
    <path
       d="m 3105,3286 c 28,-19 56,-43 63,-55 12,-20 42,-30 42,-13 0,13 -63,69 -97,86 -55,28 -60,17 -8,-18 z"
       id="path3816"
       inkscape:connector-curvature="0" />
    <path
       d="m 2803,3280 c -60,-28 -81,-50 -48,-50 8,0 15,5 15,10 0,6 9,10 20,10 11,0 20,4 20,8 0,8 43,32 55,32 3,0 5,-11 5,-24 0,-34 10,-56 25,-56 11,0 11,6 2,30 -13,33 -1,50 36,50 25,0 21,-25 -5,-37 -23,-11 -23,-11 5,-18 33,-9 51,5 61,48 l 6,27 -67,0 c -55,0 -80,-6 -130,-30 z"
       id="path3818"
       inkscape:connector-curvature="0" />
    <path
       d="m 3014,3255 c -7,-41 -27,-55 -69,-49 -29,4 -29,3 4,-8 39,-14 60,-4 79,35 16,33 27,34 48,2 9,-13 25,-27 37,-31 11,-4 29,-16 38,-28 25,-30 37,-11 13,21 -23,31 -110,93 -130,93 -7,0 -16,-16 -20,-35 z"
       id="path3820"
       inkscape:connector-curvature="0" />
    <path
       d="m 3637,3257 c 5,-22 1,-33 -12,-43 -10,-8 -15,-17 -11,-21 5,-5 25,12 46,36 29,34 42,42 58,37 37,-12 38,-46 5,-77 -17,-14 -37,-29 -44,-31 -9,-3 -14,-28 -17,-79 -3,-80 12,-82 24,-3 4,29 16,52 40,75 29,28 34,40 34,80 0,54 -7,59 -82,58 -47,-2 -47,-2 -41,-32 z"
       id="path3822"
       inkscape:connector-curvature="0" />
    <path
       d="m 2210,3209 c -27,-15 -57,-19 -135,-19 -95,-1 -99,-2 -72,-16 34,-18 149,-12 212,12 22,8 48,17 58,21 9,3 17,9 17,14 0,15 -42,8 -80,-12 z"
       id="path3824"
       inkscape:connector-curvature="0" />
    <path
       d="m 2780,3159 c 46,-40 124,-76 188,-89 50,-9 65,-8 107,10 11,5 29,10 40,12 11,2 18,8 16,13 -5,12 -45,7 -49,-6 -2,-5 -21,-9 -42,-9 -70,0 -138,21 -200,61 -74,48 -112,53 -60,8 z"
       id="path3826"
       inkscape:connector-curvature="0" />
    <path
       d="m 3553,3176 c 3,-8 0,-28 -8,-43 -8,-15 -16,-52 -20,-81 -3,-29 -10,-64 -15,-78 -12,-30 -13,-44 -2,-44 11,1 42,68 42,93 0,13 4,27 9,33 5,5 12,37 16,72 6,54 5,62 -10,62 -11,0 -15,-5 -12,-14 z"
       id="path3828"
       inkscape:connector-curvature="0" />
    <path
       d="m 1387,3052 c -8,-12 40,-69 49,-59 10,9 -15,59 -33,64 -6,2 -14,0 -16,-5 z"
       id="path3832"
       inkscape:connector-curvature="0" />
    <path
       d="m 3567,2947 c -15,-18 -32,-38 -37,-46 -7,-12 -11,-12 -24,-2 -14,12 -16,9 -16,-23 0,-20 -7,-53 -15,-73 -19,-44 -19,-43 3,-43 27,0 42,20 36,50 -6,27 2,40 50,78 14,10 27,34 31,55 4,21 6,37 4,37 -2,-1 -17,-15 -32,-33 z"
       id="path3838"
       inkscape:connector-curvature="0" />
    <path
       d="m 1475,2855 c 10,-97 26,-120 19,-25 -4,41 -11,80 -16,85 -7,7 -8,-14 -3,-60 z"
       id="path3840"
       inkscape:connector-curvature="0" />
    <path
       d="m 3602,2797 c -14,-39 -16,-101 -3,-77 9,16 25,110 19,110 -2,0 -9,-15 -16,-33 z"
       id="path3844"
       inkscape:connector-curvature="0" />
    <path
       d="m 2100,2737 c -25,-23 -52,-55 -60,-72 -8,-16 -21,-38 -29,-47 -9,-12 -10,-18 -3,-18 6,0 19,12 29,28 9,15 34,43 54,62 40,38 77,90 63,90 -5,-1 -29,-20 -54,-43 z"
       id="path3846"
       inkscape:connector-curvature="0" />
    <path
       d="m 2231,2759 c -1,-9 10,-28 24,-43 18,-19 34,-26 62,-26 35,0 132,-40 167,-69 8,-7 20,-10 26,-6 14,9 -26,40 -64,49 -16,4 -45,18 -65,32 -19,13 -47,24 -61,24 -43,0 -67,11 -78,33 -8,16 -11,18 -11,6 z"
       id="path3848"
       inkscape:connector-curvature="0" />
    <path
       d="m 2732,2726 c -14,-30 -9,-47 9,-29 6,6 9,21 7,34 -3,23 -3,23 -16,-5 z"
       id="path3850"
       inkscape:connector-curvature="0" />
    <path
       d="m 2587,2689 c -56,-9 -54,-17 6,-24 40,-5 62,-3 83,8 l 28,15 -40,3 c -22,2 -57,1 -77,-2 z"
       id="path3852"
       inkscape:connector-curvature="0" />
    <path
       d="m 2800,2697 c 0,-14 44,-89 47,-80 6,16 -24,83 -36,83 -6,0 -11,-1 -11,-3 z"
       id="path3854"
       inkscape:connector-curvature="0" />
    <path
       d="m 3581,2694 c -1,-15 -76,-126 -99,-147 -11,-10 -32,-19 -46,-21 -15,-2 -32,-8 -37,-13 -19,-19 27,-25 60,-9 29,15 81,74 81,91 0,5 12,26 26,46 14,21 24,44 21,51 -3,7 -6,8 -6,2 z"
       id="path3856"
       inkscape:connector-curvature="0" />
    <path
       d="m 2860,2591 c 0,-5 11,-22 23,-38 13,-15 29,-37 35,-48 7,-12 12,-14 12,-6 0,7 -12,33 -27,57 -27,41 -43,55 -43,35 z"
       id="path3858"
       inkscape:connector-curvature="0" />
    <path
       d="m 2029,2409 c -8,-13 -13,-32 -11,-42 3,-15 8,-14 38,13 40,34 44,35 99,16 22,-8 80,-19 130,-26 49,-6 94,-15 100,-20 13,-11 80,-12 274,-6 84,3 161,2 170,-3 11,-6 23,-4 35,5 18,13 18,14 -5,22 -35,13 -200,14 -304,1 -67,-8 -101,-8 -135,1 -25,7 -72,16 -105,22 -33,5 -74,14 -91,19 -16,5 -64,12 -105,15 -71,6 -76,5 -90,-17 z"
       id="path3862"
       inkscape:connector-curvature="0" />
    <path
       d="m 3330,2349 c -26,-80 -74,-184 -90,-194 -13,-8 -13,-35 1,-35 13,0 82,147 104,223 25,86 12,92 -15,6 z"
       id="path3864"
       inkscape:connector-curvature="0" />
    <path
       d="m 2410,2241 c 0,-13 96,-34 111,-25 8,4 -4,12 -32,20 -52,16 -79,18 -79,5 z"
       id="path3866"
       inkscape:connector-curvature="0" />
    <path
       d="m 1539,2097 c -20,-23 -48,-65 -62,-93 -32,-63 -90,-275 -81,-298 6,-16 23,-22 25,-8 1,4 3,18 4,32 8,59 37,168 66,239 34,86 49,107 49,70 0,-14 -4,-29 -9,-34 -6,-6 -12,-41 -15,-80 -4,-73 6,-63 18,16 4,26 13,55 21,65 13,17 14,12 14,-51 1,-38 -5,-99 -11,-135 -6,-36 -12,-114 -13,-175 -1,-102 1,-114 28,-169 28,-58 84,-144 131,-201 39,-48 42,-21 3,32 -42,58 -96,162 -109,212 -6,20 -17,72 -25,115 -13,72 -13,83 2,123 13,33 18,87 21,213 5,191 3,196 -57,127 z"
       id="path3870"
       inkscape:connector-curvature="0" />
    <path
       d="m 3234,1938 c 11,-241 12,-228 -28,-312 -38,-79 -93,-151 -210,-274 -73,-77 -83,-105 -18,-54 108,86 225,236 271,347 27,64 28,80 16,253 -6,79 -5,112 3,112 26,0 44,-143 27,-220 -7,-33 -6,-34 9,-15 8,11 16,34 16,50 0,17 4,36 9,44 18,28 37,2 55,-75 11,-45 35,-104 55,-138 29,-49 36,-71 41,-135 l 6,-76 10,55 11,55 18,-40 c 32,-72 9,-309 -51,-524 -5,-17 -4,-22 4,-17 7,4 12,15 12,25 0,10 3,21 7,24 6,7 40,127 49,172 23,125 32,236 22,275 -11,43 -41,110 -49,110 -16,0 -89,144 -114,225 -39,129 -76,206 -120,248 -21,20 -42,37 -48,37 -6,0 -7,-58 -3,-152 z"
       id="path3872"
       inkscape:connector-curvature="0" />
    <path
       d="m 2140,1769 c 39,-33 106,-68 142,-74 138,-22 259,-22 333,2 99,31 66,40 -55,14 -85,-17 -113,-19 -176,-9 -32,5 -71,11 -85,13 -34,4 -145,53 -160,71 -6,8 -17,14 -23,14 -6,-1 5,-14 24,-31 z"
       id="path3874"
       inkscape:connector-curvature="0" />
    <path
       d="m 1329,1674 c -18,-19 -53,-43 -75,-53 -35,-16 -42,-24 -49,-57 -4,-22 -11,-45 -17,-51 -6,-7 -8,-13 -5,-13 3,0 18,18 35,40 29,40 100,95 109,86 8,-8 -56,-204 -79,-242 -14,-23 -19,-47 -16,-73 2,-22 0,-37 -4,-35 -3,2 -12,-13 -18,-33 -7,-21 -17,-44 -22,-50 -6,-7 -11,-43 -13,-80 -2,-38 -6,-89 -10,-114 -6,-41 -5,-47 14,-52 13,-3 21,-13 21,-25 0,-12 4,-24 10,-27 5,-3 26,-30 46,-60 20,-30 38,-55 41,-55 11,0 -12,48 -43,91 -19,26 -34,52 -34,59 0,6 -7,18 -15,26 -9,10 -15,34 -15,66 l 0,51 24,-22 c 15,-14 22,-30 19,-42 -5,-18 32,-68 50,-69 9,0 -2,51 -14,64 -5,6 -9,18 -9,27 0,9 -6,22 -14,28 -8,7 -24,32 -35,57 -18,37 -19,47 -9,64 17,27 24,25 31,-8 3,-15 24,-55 46,-89 37,-54 41,-67 41,-121 0,-89 17,-85 25,5 13,158 65,269 147,317 74,43 89,43 125,-2 18,-22 41,-42 52,-45 17,-4 15,1 -10,26 -17,16 -35,41 -40,55 -8,22 -14,24 -48,19 -94,-12 -168,-81 -215,-199 -14,-36 -26,-71 -26,-77 0,-25 -16,-7 -39,42 -13,29 -30,59 -37,68 -8,8 -17,30 -20,47 -10,48 12,40 36,-13 20,-44 40,-59 40,-31 0,7 -7,27 -15,42 -8,16 -15,37 -15,46 0,9 -4,20 -10,23 -5,3 -10,28 -10,56 0,72 24,65 40,-11 7,-33 17,-63 21,-66 5,-3 9,-18 9,-34 0,-16 4,-31 9,-34 16,-10 19,46 5,80 -8,18 -14,41 -14,50 0,9 -7,31 -16,50 -15,30 -15,38 0,96 16,60 50,182 63,221 9,27 -10,20 -48,-19 z"
       id="path3876"
       inkscape:connector-curvature="0" />
    <path
       d="m 1840,1613 c 0,-14 50,-63 65,-63 5,1 -1,10 -14,21 -14,11 -30,28 -38,37 -7,10 -12,12 -13,5 z"
       id="path3878"
       inkscape:connector-curvature="0" />
    <path
       d="m 1162,1578 c -5,-7 -13,-40 -16,-73 -4,-33 -10,-75 -13,-92 -8,-48 14,-41 27,8 6,23 10,58 9,78 -2,20 3,46 9,58 7,12 12,24 12,27 0,11 -17,6 -28,-6 z"
       id="path3880"
       inkscape:connector-curvature="0" />
    <path
       d="m 1088,1540 c -21,-28 -69,-60 -90,-60 -6,0 -22,-9 -38,-20 -15,-10 -47,-22 -71,-26 -24,-4 -56,-15 -70,-25 -15,-10 -37,-23 -50,-29 -13,-6 -42,-22 -64,-35 -22,-14 -50,-25 -61,-25 -12,0 -27,-7 -34,-15 -7,-8 -18,-15 -25,-15 -7,0 -41,-14 -76,-31 -72,-36 -94,-45 -126,-54 -13,-4 -23,-10 -23,-15 0,-17 151,-229 206,-290 101,-111 214,-224 219,-218 4,3 -1,20 -10,38 -9,17 -14,37 -12,44 3,7 2,28 -3,47 -7,31 -8,32 -9,7 -1,-18 -7,-28 -16,-28 -8,0 -15,-5 -15,-11 0,-5 -4,-7 -10,-4 -5,3 -10,18 -10,32 0,18 -4,24 -15,19 -17,-6 -41,30 -37,55 2,11 -5,15 -20,15 -19,-1 -22,3 -20,27 2,15 -1,27 -7,27 -6,0 -11,14 -11,31 0,19 -4,28 -11,23 -7,-4 -9,-21 -6,-40 3,-19 3,-34 0,-34 -10,0 -32,35 -33,52 0,9 -6,18 -12,21 -10,3 -10,8 1,21 8,9 11,19 7,23 -3,3 -6,1 -6,-5 0,-16 -12,-15 -36,3 -16,12 -17,16 -5,24 9,6 11,15 6,27 -8,18 -8,18 -12,2 -6,-26 -15,-22 -47,24 -35,49 -27,75 23,70 21,-1 31,2 31,12 0,15 75,56 102,56 9,0 21,7 28,15 7,8 21,15 31,15 10,0 21,5 24,10 3,6 17,10 31,10 16,0 36,12 55,32 26,30 29,31 29,11 0,-12 5,-25 10,-28 6,-3 10,2 10,13 0,48 113,100 147,67 19,-20 47,-20 39,0 -3,8 -8,21 -11,28 -6,15 19,32 62,41 28,6 31,5 26,-12 -2,-11 0,-23 6,-26 7,-5 7,-13 -2,-26 -10,-17 -8,-23 11,-42 17,-17 22,-19 22,-7 0,9 -3,19 -7,22 -14,14 -2,122 17,155 26,43 0,45 -32,2 z"
       id="path3882"
       inkscape:connector-curvature="0" />
    <path
       d="m 3586,1534 c 25,-32 27,-43 27,-122 -1,-89 -7,-141 -23,-202 -12,-44 2,-58 29,-29 23,25 27,44 11,54 -5,3 -9,16 -9,28 1,17 2,18 6,5 2,-10 10,-18 17,-18 10,0 12,19 10,75 -2,41 1,77 6,80 14,9 13,65 -1,65 -7,0 -9,11 -5,30 5,27 1,33 -27,50 -17,11 -40,20 -50,20 -16,0 -14,-5 9,-36 z"
       id="path3884"
       inkscape:connector-curvature="0" />
    <path
       d="m 3680,1511 c 0,-6 4,-12 9,-15 11,-7 51,-88 51,-104 0,-14 10,-15 29,-3 12,8 10,16 -12,50 -38,57 -8,56 34,-1 46,-64 66,-107 73,-163 4,-27 12,-66 18,-86 7,-26 7,-42 -1,-58 -9,-17 -9,-21 1,-19 9,2 13,-9 11,-37 -1,-22 -4,-98 -6,-170 -3,-71 -11,-159 -17,-194 -6,-35 -8,-66 -6,-69 3,-3 -2,-11 -12,-19 -9,-8 -11,-12 -4,-8 10,5 11,-6 6,-52 -4,-32 -10,-60 -14,-63 -4,-3 -10,-15 -14,-28 -4,-12 -14,-22 -22,-22 -8,0 -14,-7 -14,-15 0,-22 22,-18 61,10 19,14 72,53 118,87 81,59 241,206 241,221 0,14 -29,7 -42,-11 -36,-50 -84,1 -80,84 1,29 -3,44 -13,48 -15,5 -21,46 -7,46 4,0 22,-13 40,-29 22,-20 32,-39 32,-58 0,-21 8,-33 29,-46 15,-9 31,-14 35,-10 3,3 6,1 6,-5 0,-25 26,-9 65,39 22,27 52,61 67,76 15,16 61,73 102,127 59,78 73,103 64,113 -6,8 -17,12 -24,9 -7,-3 -16,-1 -19,4 -4,6 -15,10 -27,10 -11,0 -32,13 -47,29 -15,16 -41,32 -58,35 -17,4 -37,14 -44,22 -6,8 -19,14 -29,14 -23,0 -34,-41 -15,-56 19,-14 17,-93 -3,-116 -10,-12 -11,-18 -4,-18 7,0 12,6 12,13 0,7 7,4 15,-7 9,-12 15,-42 15,-73 0,-40 4,-53 15,-53 10,0 13,9 10,30 -2,16 -6,34 -9,39 -4,5 -2,12 4,16 6,4 4,19 -6,43 -16,38 -25,140 -13,147 3,3 14,-4 24,-15 10,-11 29,-20 43,-20 18,0 23,-4 18,-16 -7,-18 3,-64 14,-64 4,0 5,11 2,25 -3,20 0,25 17,25 11,0 21,-6 21,-14 0,-8 7,-16 15,-20 28,-11 18,-60 -20,-94 -29,-25 -37,-28 -42,-16 -6,16 2,29 19,29 6,0 13,6 16,14 3,10 0,12 -13,7 -11,-4 -22,-1 -27,6 -4,7 -8,-17 -8,-58 0,-67 -1,-71 -27,-84 -41,-20 -63,-41 -63,-58 0,-22 -42,-57 -69,-57 -27,0 -51,30 -51,64 0,19 -9,30 -32,42 -26,12 -32,22 -32,47 -1,38 -15,46 -27,14 -6,-15 -5,-21 1,-17 6,3 10,-1 10,-10 0,-9 -4,-13 -10,-10 -6,4 -10,-18 -10,-59 0,-37 4,-66 10,-66 14,0 12,-24 -2,-39 -7,-6 -14,-26 -14,-44 -4,-84 -16,-118 -52,-145 -19,-15 -42,-27 -51,-27 -9,0 -16,-6 -16,-12 0,-7 -10,-19 -22,-28 -28,-19 -33,-6 -20,55 5,25 10,54 12,65 1,11 3,23 4,27 0,4 8,5 16,2 8,-4 15,-1 15,5 0,6 -7,11 -15,11 -13,0 -15,10 -11,53 23,234 23,357 1,471 -24,125 -32,155 -42,168 -15,19 -26,58 -16,58 5,0 30,-21 56,-46 44,-42 49,-44 54,-25 7,29 21,26 34,-6 19,-51 68,-88 56,-43 -5,19 -4,19 23,-1 20,-15 26,-27 22,-45 -3,-19 0,-24 17,-24 19,0 20,2 9,20 -7,10 -9,22 -6,25 9,9 65,-22 81,-45 14,-20 15,-20 21,-3 9,22 -33,58 -77,67 -16,3 -52,22 -78,41 -27,19 -55,35 -63,35 -8,0 -27,11 -43,24 -16,14 -43,28 -59,32 -16,4 -66,24 -110,46 -85,39 -104,45 -104,29 z m 416,-791 c 25,0 27,-27 4,-50 -26,-26 -32,-22 -35,22 -3,34 6,61 13,40 2,-7 10,-12 18,-12 z"
       id="path3888"
       inkscape:connector-curvature="0" />
    <path
       d="m 3451,1375 c -13,-38 -44,-117 -68,-175 -46,-108 -69,-230 -44,-230 6,0 11,12 11,27 0,15 29,114 65,221 36,107 65,202 63,211 -2,9 -14,-15 -27,-54 z"
       id="path3890"
       inkscape:connector-curvature="0" />
    <path
       d="m 2078,1401 c 33,-31 52,-39 52,-22 0,5 -19,19 -42,31 l -43,22 33,-31 z"
       id="path3892"
       inkscape:connector-curvature="0" />
    <path
       d="m 3725,1267 c 0,-93 23,-180 51,-191 16,-6 6,32 -17,65 -16,22 -18,38 -12,90 3,35 10,67 16,70 9,6 -19,59 -32,59 -3,0 -6,-42 -6,-93 z"
       id="path3894"
       inkscape:connector-curvature="0" />
    <path
       d="m 1026,1303 c 3,-31 11,-105 13,-122 1,-3 6,0 11,5 8,8 8,30 1,74 -12,71 -31,104 -25,43 z"
       id="path3896"
       inkscape:connector-curvature="0" />
    <path
       d="m 3101,1301 c -8,-18 -22,-41 -31,-50 -23,-21 -37,-65 -20,-59 18,6 72,106 68,126 -2,12 -8,6 -17,-17 z"
       id="path3898"
       inkscape:connector-curvature="0" />
    <path
       d="m 2579,1309 c -8,-5 -26,-9 -41,-9 -16,0 -28,-4 -28,-10 0,-14 26,-12 79,4 35,10 40,14 24,18 -12,3 -27,2 -34,-3 z"
       id="path3900"
       inkscape:connector-curvature="0" />
    <path
       d="m 798,1294 c -10,-15 16,-49 30,-40 7,4 12,15 11,24 0,11 -3,12 -6,5 -7,-19 -21,-16 -25,5 -2,11 -6,13 -10,6 z"
       id="path3902"
       inkscape:connector-curvature="0" />
    <path
       d="m 940,1288 c 0,-22 36,-52 45,-38 4,6 5,12 4,13 -2,1 -14,11 -26,21 -19,16 -23,16 -23,4 z"
       id="path3904"
       inkscape:connector-curvature="0" />
    <path
       d="m 2375,1270 c 3,-5 28,-10 55,-10 27,0 52,5 55,10 4,6 -17,10 -55,10 -38,0 -59,-4 -55,-10 z"
       id="path3906"
       inkscape:connector-curvature="0" />
    <path
       d="m 750,1240 c 0,-12 -7,-20 -17,-20 -15,0 -16,-2 -3,-10 23,-15 27,-12 32,20 3,17 1,30 -4,30 -4,0 -8,-9 -8,-20 z"
       id="path3908"
       inkscape:connector-curvature="0" />
    <path
       d="m 4027,1253 c -8,-14 23,-73 38,-73 19,0 19,-24 0,-40 -18,-15 -20,-43 -3,-38 6,2 15,11 18,19 4,8 12,25 19,37 7,13 11,25 9,25 -30,15 -44,28 -48,47 -6,24 -25,37 -33,23 z"
       id="path3910"
       inkscape:connector-curvature="0" />
    <path
       d="m 867,1244 c -13,-13 -7,-44 8,-44 16,0 17,5 6,33 -3,10 -10,15 -14,11 z"
       id="path3912"
       inkscape:connector-curvature="0" />
    <path
       d="m 790,1207 c 0,-27 13,-36 26,-16 3,6 -1,18 -10,27 -15,15 -16,14 -16,-11 z"
       id="path3914"
       inkscape:connector-curvature="0" />
    <path
       d="m 3120,1194 c -8,-20 -34,-53 -57,-74 -24,-21 -43,-41 -43,-44 0,-10 -38,-63 -89,-124 -39,-47 -44,-60 -51,-123 -9,-84 -33,-120 -90,-134 -13,-4 -43,-15 -67,-26 -23,-10 -46,-19 -51,-19 -5,0 -22,-6 -38,-14 -35,-17 -107,-48 -151,-65 -33,-13 -74,-51 -55,-51 6,0 31,14 55,30 25,17 51,30 58,30 13,0 217,80 280,110 46,21 72,67 78,139 6,64 9,69 87,166 45,55 91,109 104,120 12,11 31,37 41,58 21,41 42,46 88,22 90,-46 66,-225 -53,-390 -36,-49 -66,-93 -66,-97 -1,-35 87,60 152,162 18,30 48,165 48,221 0,87 -48,139 -128,139 -35,0 -40,-3 -52,-36 z"
       id="path3916"
       inkscape:connector-curvature="0" />
    <path
       d="m 1707,1205 c -4,-8 -3,-14 1,-12 4,1 30,-20 57,-46 28,-27 62,-55 76,-62 14,-8 33,-25 42,-39 9,-13 44,-39 77,-57 62,-33 86,-57 168,-166 26,-34 84,-108 130,-164 45,-56 82,-108 82,-115 0,-17 12,-18 28,-2 14,14 16,68 2,68 -5,0 -10,-6 -10,-14 0,-30 -20,-26 -33,6 -8,18 -52,80 -98,138 -46,58 -99,128 -117,157 -36,56 -74,89 -137,119 -22,10 -56,34 -75,54 -19,19 -55,49 -80,67 -25,18 -59,44 -76,58 -26,21 -33,23 -37,10 z"
       id="path3918"
       inkscape:connector-curvature="0" />
    <path
       d="m 3990,1201 c 0,-12 -5,-21 -11,-21 -6,0 -3,-7 5,-16 9,-8 16,-26 16,-40 0,-13 4,-24 8,-24 12,0 14,67 3,75 -6,3 -8,12 -5,19 3,8 1,17 -5,21 -7,3 -11,-2 -11,-14 z"
       id="path3920"
       inkscape:connector-curvature="0" />
    <path
       d="m 907,1166 c -23,-18 -22,-23 8,-28 19,-4 25,-1 25,13 0,24 -12,30 -33,15 z"
       id="path3922"
       inkscape:connector-curvature="0" />
    <path
       d="m 2394,1155 c 22,-17 56,-20 56,-6 0,11 -25,21 -53,21 -22,-1 -22,-1 -3,-15 z"
       id="path3924"
       inkscape:connector-curvature="0" />
    <path
       d="m 784,1145 c -4,-9 -3,-97 1,-194 4,-97 9,-192 9,-211 1,-19 5,-41 9,-47 5,-7 5,-18 2,-23 -10,-16 82,-94 295,-247 25,-19 72,-46 175,-103 33,-18 65,-36 70,-40 6,-4 62,-28 125,-54 63,-26 129,-53 145,-61 71,-30 386,-115 430,-115 14,0 15,3 5,15 -7,8 -19,15 -27,15 -7,0 -16,7 -19,15 -4,8 -11,15 -18,15 -6,0 -29,21 -50,45 -29,34 -47,45 -68,45 -27,0 -37,13 -18,25 13,8 1,35 -16,35 -8,0 -19,12 -24,26 -6,14 -14,22 -20,19 -5,-3 -10,1 -10,9 0,9 -4,16 -10,16 -15,0 -12,-46 3,-59 8,-6 17,-8 21,-4 4,4 4,0 1,-9 -4,-9 0,-18 9,-21 9,-4 16,-12 16,-19 0,-8 10,-20 21,-28 41,-28 104,-90 92,-90 -17,0 -63,21 -96,43 -27,19 -29,19 -42,1 -13,-18 -15,-17 -27,14 -13,35 -34,41 -52,17 -19,-27 -70,6 -86,56 -8,23 -19,43 -26,46 -6,2 -14,16 -18,31 -3,15 -20,43 -38,63 -18,20 -38,45 -45,55 -11,17 -12,17 -12,-8 -1,-16 4,-28 9,-28 20,0 60,-48 76,-92 22,-60 28,-98 16,-98 -14,0 -25,19 -28,48 -4,31 -14,42 -14,15 0,-11 -7,-26 -15,-33 -8,-7 -15,-8 -15,-4 0,5 -10,14 -22,19 -13,6 -23,17 -23,25 0,8 -11,25 -24,37 -37,36 -58,28 -24,-9 9,-10 13,-21 9,-26 -4,-4 -16,4 -27,17 -10,13 -19,18 -19,12 0,-21 -20,-11 -30,15 -8,19 -15,24 -29,19 -21,-6 -20,-10 -46,98 -17,72 -13,120 7,83 9,-16 16,-58 19,-108 0,-18 48,-58 69,-58 10,0 10,3 0,15 -7,8 -16,12 -21,10 -13,-9 -39,56 -41,102 -1,39 -19,70 -40,72 -5,1 -8,4 -7,9 0,4 9,6 21,4 16,-2 19,1 12,15 -4,10 -9,42 -10,71 -2,61 -9,82 -25,82 -8,0 -9,-11 -5,-32 16,-73 16,-108 1,-108 -8,0 -15,-8 -15,-18 0,-44 23,-188 32,-199 5,-7 7,-17 3,-22 -9,-15 -45,10 -45,31 0,9 -14,27 -31,39 l -31,22 7,-22 c 8,-27 -6,-27 -30,-1 -15,17 -18,36 -17,120 1,55 6,117 10,138 4,20 5,51 2,67 l -6,30 -7,-25 c -4,-14 -10,-81 -13,-150 -7,-156 -8,-159 -37,-133 -12,11 -59,46 -105,77 -89,63 -112,88 -112,124 0,13 -4,21 -10,17 -5,-3 -7,-12 -3,-20 3,-8 1,-15 -4,-15 -25,0 -44,145 -47,355 -2,139 -8,177 -22,140 z"
       id="path3926"
       inkscape:connector-curvature="0" />
    <path
       d="m 1010,1125 c -6,-17 -5,-34 5,-57 l 14,-33 1,35 c 0,19 3,45 6,58 9,31 -14,29 -26,-3 z"
       id="path3928"
       inkscape:connector-curvature="0" />
    <path
       d="m 3565,1140 c -3,-5 -6,-25 -7,-45 -1,-19 -7,-40 -14,-46 -7,-6 -10,-17 -7,-25 3,-8 -3,-21 -13,-29 -18,-14 -18,-15 6,-34 29,-23 42,-18 34,13 -3,15 3,30 21,50 23,25 24,29 10,49 -21,30 -19,36 13,48 25,10 26,12 7,19 -28,12 -43,12 -50,0 z"
       id="path3930"
       inkscape:connector-curvature="0" />
    <path
       d="m 4105,1142 c 6,-5 21,-13 34,-17 17,-5 22,-4 19,6 -3,8 -18,15 -34,17 -19,2 -25,0 -19,-6 z"
       id="path3932"
       inkscape:connector-curvature="0" />
    <path
       d="m 840,1103 c 0,-24 16,-48 23,-36 8,13 -3,53 -14,53 -5,0 -9,-8 -9,-17 z"
       id="path3934"
       inkscape:connector-curvature="0" />
    <path
       d="m 545,1080 c -9,-15 -5,-19 33,-26 34,-7 45,9 15,20 -10,3 -23,8 -30,12 -6,3 -14,0 -18,-6 z"
       id="path3936"
       inkscape:connector-curvature="0" />
    <path
       d="m 4061,1052 c 1,-32 2,-34 8,-12 5,17 9,21 15,12 8,-14 36,-16 36,-3 0,5 -13,16 -30,25 l -30,14 1,-36 z"
       id="path3938"
       inkscape:connector-curvature="0" />
    <path
       d="m 3736,1061 c -3,-5 -5,-38 -5,-74 1,-52 -4,-74 -21,-102 -17,-27 -21,-45 -17,-72 5,-27 2,-40 -11,-50 -16,-12 -16,-14 1,-27 15,-12 16,-16 4,-23 -8,-4 -17,-21 -21,-36 -4,-18 -3,-26 3,-23 5,4 13,1 16,-5 4,-6 -2,-13 -13,-16 -24,-6 -48,-104 -32,-133 6,-10 10,-33 10,-50 0,-18 6,-33 15,-36 22,-9 19,-51 -5,-57 -17,-4 -19,-1 -14,18 3,12 1,26 -5,29 -7,4 -16,-11 -23,-38 -11,-41 -28,-63 -28,-36 0,6 -7,10 -15,10 -9,0 -15,-9 -15,-21 0,-19 -4,-20 -40,-15 -36,5 -57,-7 -28,-16 6,-2 8,-9 4,-16 -4,-8 -14,-8 -31,-2 -19,7 -25,6 -25,-5 0,-8 -10,-19 -21,-26 -20,-11 -21,-9 -15,22 4,19 9,48 12,64 3,17 10,41 16,55 27,64 39,104 44,150 3,23 12,46 35,92 5,10 6,25 2,34 -3,9 0,19 6,24 17,10 27,90 12,90 -6,0 -11,5 -11,10 0,6 7,10 15,10 16,0 20,12 8,23 -10,11 -33,-13 -33,-34 0,-11 -4,-19 -9,-19 -10,0 -54,-80 -48,-87 6,-6 47,52 47,66 0,6 5,11 10,11 13,0 13,-4 -2,-51 -6,-22 -15,-39 -19,-39 -4,0 -10,-18 -14,-40 -4,-22 -11,-42 -16,-46 -5,-3 -9,-15 -9,-28 0,-12 -5,-27 -12,-34 -6,-6 -12,-35 -14,-64 -2,-41 -7,-56 -23,-67 -20,-13 -31,-48 -11,-36 6,3 10,2 10,-4 0,-5 -5,-13 -11,-17 -6,-3 -8,-17 -5,-29 8,-31 -24,-86 -45,-80 -9,3 -19,-1 -23,-10 -3,-8 -12,-15 -19,-15 -12,0 -13,9 -5,48 5,26 17,53 26,60 14,11 13,12 -6,12 -16,0 -22,-6 -22,-22 -1,-13 -11,-43 -24,-67 -21,-41 -28,-45 -107,-72 -46,-15 -88,-28 -92,-29 -10,0 -4,22 30,112 45,124 12,96 -40,-32 -30,-75 -42,-91 -78,-100 -25,-7 -46,-7 -64,0 -35,13 -38,13 -32,-4 7,-17 -13,-26 -54,-26 -24,0 -29,4 -29,25 0,14 5,25 10,25 6,0 10,-4 10,-10 0,-5 7,-10 15,-10 8,0 15,7 15,15 0,9 11,20 24,27 14,6 26,20 28,32 2,14 14,25 37,32 18,6 41,23 49,37 9,15 20,27 24,27 5,0 8,9 8,21 0,15 -4,19 -16,15 -9,-3 -22,-6 -30,-6 -10,0 -13,-7 -8,-25 5,-20 3,-24 -10,-19 -10,4 -16,1 -16,-10 0,-9 -15,-20 -40,-27 -33,-10 -39,-16 -34,-32 8,-24 -13,-38 -43,-30 -17,4 -23,1 -23,-11 0,-8 -11,-18 -25,-22 -21,-5 -24,-10 -19,-31 6,-23 5,-24 -15,-11 -19,11 -24,11 -35,-4 -6,-9 -28,-21 -47,-27 -27,-8 -9,-9 86,-7 66,2 136,6 155,10 160,32 432,112 477,142 12,8 27,14 34,14 25,0 349,167 376,194 3,3 -1,12 -10,20 -13,13 -16,13 -30,-2 -8,-9 -16,-23 -19,-31 -3,-10 -13,-2 -33,23 -22,29 -29,48 -28,79 1,23 -2,44 -8,47 -16,11 10,70 32,70 15,0 18,8 19,53 2,106 4,117 23,117 26,0 20,27 -8,34 -23,6 -24,8 -10,22 8,8 15,22 15,30 0,9 5,25 12,37 7,12 13,55 13,95 0,66 -5,86 -19,63 z"
       id="path3940"
       inkscape:connector-curvature="0" />
    <path
       d="m 4004,1054 c 3,-9 6,-30 6,-47 0,-20 3,-28 10,-21 12,12 1,84 -12,84 -6,0 -7,-7 -4,-16 z"
       id="path3942"
       inkscape:connector-curvature="0" />
    <path
       d="m 2924,1040 c -28,-11 -130,-107 -123,-115 9,-8 63,31 117,83 43,42 44,48 6,32 z"
       id="path3944"
       inkscape:connector-curvature="0" />
    <path
       d="m 837,1003 c -2,-21 0,-42 4,-47 5,-6 9,10 9,37 0,57 -6,61 -13,10 z"
       id="path3946"
       inkscape:connector-curvature="0" />
    <path
       d="m 890,1035 c 0,-14 32,-66 37,-61 8,7 -17,66 -28,66 -5,0 -9,-2 -9,-5 z"
       id="path3948"
       inkscape:connector-curvature="0" />
    <path
       d="m 950,1012 c 0,-9 7,-11 20,-7 15,5 21,0 26,-19 3,-14 3,-37 0,-51 -4,-14 -2,-25 3,-25 13,0 19,71 8,96 -10,24 -57,28 -57,6 z"
       id="path3950"
       inkscape:connector-curvature="0" />
    <path
       d="m 4204,1006 c -3,-9 -12,-16 -20,-16 -10,0 -12,-5 -5,-17 5,-10 13,-27 17,-38 6,-15 9,-8 14,30 7,52 5,69 -6,41 z"
       id="path3952"
       inkscape:connector-curvature="0" />
    <path
       d="m 3657,993 c -11,-10 -8,-53 3,-53 6,0 10,14 10,30 0,31 -2,35 -13,23 z"
       id="path3954"
       inkscape:connector-curvature="0" />
    <path
       d="m 1447,983 c -4,-3 -7,-19 -7,-34 0,-38 -9,-59 -26,-59 -21,0 -18,-5 34,-76 122,-168 160,-216 220,-284 17,-21 32,-42 32,-49 0,-6 9,-16 20,-23 11,-7 20,-17 20,-21 0,-20 145,-174 311,-330 58,-54 78,-67 98,-64 20,2 22,5 10,11 -30,14 -283,253 -339,321 -14,17 -46,55 -71,85 -25,30 -60,75 -78,100 -17,25 -48,65 -67,90 -107,134 -163,215 -164,233 0,33 19,17 66,-55 27,-40 56,-79 66,-86 10,-7 18,-19 18,-26 0,-8 16,-31 36,-52 20,-22 55,-64 77,-94 98,-130 251,-299 315,-348 17,-13 32,-31 32,-38 0,-8 5,-14 12,-14 6,0 30,-20 54,-44 23,-24 52,-49 63,-56 12,-6 19,-15 16,-21 -4,-5 12,-8 37,-8 24,1 33,4 21,6 -13,2 -23,11 -23,18 0,13 -17,26 -44,37 -11,3 -137,121 -199,186 -92,96 -163,173 -187,203 -14,18 -33,39 -42,48 -10,8 -18,20 -18,25 0,6 -9,19 -20,31 -35,36 -110,133 -110,144 0,5 -9,13 -20,16 -11,3 -20,15 -20,26 0,10 -4,19 -9,19 -8,0 -41,46 -61,85 -3,6 -13,22 -23,37 -10,14 -19,36 -20,47 -1,24 -1,23 -10,14 z"
       id="path3956"
       inkscape:connector-curvature="0" />
    <path
       d="m 1496,965 c 9,-14 19,-25 23,-25 3,0 14,-19 24,-43 10,-23 35,-60 55,-83 35,-38 39,-40 62,-28 15,8 19,14 10,14 -18,1 -100,73 -100,89 0,14 13,14 28,-1 9,-9 12,-9 12,1 0,7 -9,15 -19,18 -11,3 -33,22 -51,44 -36,45 -72,57 -44,14 z"
       id="path3958"
       inkscape:connector-curvature="0" />
    <path
       d="m 678,942 c -2,-15 -1,-38 3,-52 5,-18 7,-10 8,28 1,56 -4,69 -11,24 z"
       id="path3960"
       inkscape:connector-curvature="0" />
    <path
       d="m 3312,931 c 10,-16 9,-23 -3,-38 -9,-10 -23,-35 -33,-55 -9,-20 -21,-40 -26,-43 -6,-3 -10,-21 -10,-38 0,-22 -3,-28 -9,-18 -5,8 -16,11 -26,7 -17,-6 -16,-8 4,-29 25,-27 28,-57 5,-57 -12,0 -15,-6 -11,-21 4,-15 0,-23 -14,-26 -20,-5 -27,-33 -9,-33 24,0 58,49 68,97 6,27 29,92 52,143 45,106 49,130 20,130 -17,0 -19,-3 -8,-19 z"
       id="path3962"
       inkscape:connector-curvature="0" />
    <path
       d="m 3780,935 c -10,-12 -10,-21 -1,-41 13,-29 7,-44 -17,-44 -11,0 -6,-6 12,-15 39,-21 40,-20 31,28 -4,23 -7,52 -7,65 0,26 -2,27 -18,7 z"
       id="path3964"
       inkscape:connector-curvature="0" />
    <path
       d="m 838,935 c -8,-8 3,-65 13,-65 5,0 7,14 5,30 -4,32 -9,43 -18,35 z"
       id="path3966"
       inkscape:connector-curvature="0" />
    <path
       d="m 1151,884 c -15,-75 -14,-107 2,-101 6,2 11,15 10,28 -1,13 3,43 9,67 7,29 8,46 1,53 -7,7 -14,-9 -22,-47 z"
       id="path3968"
       inkscape:connector-curvature="0" />
    <path
       d="m 3490,921 c 0,-22 24,-28 50,-11 18,11 13,16 -23,25 -23,6 -27,4 -27,-14 z"
       id="path3970"
       inkscape:connector-curvature="0" />
    <path
       d="m 2684,838 c -49,-46 -110,-100 -135,-120 -49,-39 -137,-138 -122,-138 4,0 39,29 77,65 37,36 74,65 81,65 7,0 37,26 67,58 29,32 68,69 85,82 31,22 51,56 40,66 -3,3 -45,-32 -93,-78 z"
       id="path3972"
       inkscape:connector-curvature="0" />
    <path
       d="m 1330,870 c 0,-5 6,-13 13,-17 6,-4 21,-25 31,-46 16,-31 17,-40 7,-46 -21,-13 5,-51 39,-58 16,-3 27,-9 24,-14 -3,-5 8,-23 25,-40 17,-17 31,-34 31,-39 0,-4 10,-10 21,-13 16,-4 20,-11 16,-26 -4,-16 0,-21 14,-21 11,0 23,-8 27,-18 15,-38 68,-102 85,-102 9,0 17,3 17,6 0,8 -65,91 -117,150 -13,14 -23,28 -23,32 0,4 -18,26 -40,50 -22,24 -40,48 -40,55 0,7 -9,18 -20,25 -11,7 -20,19 -20,27 0,22 -60,105 -76,105 -8,0 -14,-4 -14,-10 z"
       id="path3974"
       inkscape:connector-curvature="0" />
    <path
       d="m 3475,868 c -3,-7 -11,-31 -19,-53 -8,-22 -21,-57 -30,-77 -9,-21 -14,-38 -11,-38 10,0 65,94 65,110 0,9 9,26 19,37 11,12 17,24 14,27 -11,10 -33,7 -38,-6 z"
       id="path3976"
       inkscape:connector-curvature="0" />
    <path
       d="m 900,851 c 0,-5 -3,-16 -6,-24 -4,-11 1,-13 20,-10 21,4 24,8 15,24 -10,20 -29,26 -29,10 z"
       id="path3978"
       inkscape:connector-curvature="0" />
    <path
       d="m 3577,854 c -11,-11 5,-34 24,-34 22,0 24,11 7,28 -13,13 -22,15 -31,6 z"
       id="path3980"
       inkscape:connector-curvature="0" />
    <path
       d="m 3997,844 c -3,-3 -3,-12 0,-20 3,-7 -5,-25 -16,-40 -28,-36 -27,-52 3,-23 23,24 40,76 26,84 -4,2 -10,2 -13,-1 z"
       id="path3982"
       inkscape:connector-curvature="0" />
    <path
       d="m 1200,790 c -1,-47 33,-170 47,-170 14,0 18,16 5,24 -5,3 -14,36 -21,73 -13,76 -30,116 -31,73 z"
       id="path3984"
       inkscape:connector-curvature="0" />
    <path
       d="m 3582,798 c -15,-15 -16,-58 -2,-58 6,0 10,11 10,25 0,16 6,25 15,25 8,0 15,5 15,10 0,14 -23,13 -38,-2 z"
       id="path3986"
       inkscape:connector-curvature="0" />
    <path
       d="m 950,785 c 0,-16 27,-32 37,-21 7,7 -16,36 -28,36 -5,0 -9,-7 -9,-15 z"
       id="path3988"
       inkscape:connector-curvature="0" />
    <path
       d="m 1332,710 c 27,-52 48,-75 48,-53 0,13 -64,113 -72,113 -4,0 6,-27 24,-60 z"
       id="path3990"
       inkscape:connector-curvature="0" />
    <path
       d="m 1650,756 c 0,-12 25,-50 60,-87 8,-9 34,-43 57,-75 23,-33 58,-76 77,-97 19,-20 39,-43 43,-50 15,-25 81,-78 87,-69 3,5 -12,26 -32,48 -21,21 -41,47 -45,57 -3,9 -13,17 -22,17 -8,0 -15,8 -15,18 0,11 -11,24 -25,30 -14,6 -25,18 -25,25 0,8 -9,22 -20,32 -11,10 -18,20 -16,23 3,2 -7,14 -22,27 -30,25 -23,47 8,27 23,-14 30,-15 30,-3 0,12 -50,31 -75,28 -13,-1 -21,5 -23,18 -3,25 -42,53 -42,31 z"
       id="path3992"
       inkscape:connector-curvature="0" />
    <path
       d="m 2374,716 c -4,-10 -2,-22 4,-28 8,-8 13,-7 18,6 4,10 2,22 -4,28 -8,8 -13,7 -18,-6 z"
       id="path3994"
       inkscape:connector-curvature="0" />
    <path
       d="m 3055,720 c -29,-25 -132,-129 -148,-149 -10,-12 -16,-28 -14,-34 5,-15 97,76 97,96 0,21 62,59 75,46 7,-7 1,-18 -17,-33 -16,-12 -28,-27 -28,-34 0,-6 -11,-14 -24,-18 -13,-3 -29,-17 -35,-30 -14,-32 -14,-34 4,-34 8,0 15,7 15,16 0,9 9,18 20,21 11,3 20,12 20,20 0,8 9,17 20,20 11,3 23,16 26,29 3,13 12,24 20,24 8,0 14,7 14,15 0,8 -7,15 -16,15 -13,0 -14,3 -5,13 17,21 -3,35 -24,17 z"
       id="path3996"
       inkscape:connector-curvature="0" />
    <path
       d="m 3160,700 c -12,-7 -12,-12 -3,-21 9,-9 16,-9 27,1 26,21 5,39 -24,20 z"
       id="path3998"
       inkscape:connector-curvature="0" />
    <path
       d="m 3595,690 c -4,-6 -1,-10 4,-10 6,0 11,-9 11,-21 0,-11 5,-17 10,-14 15,9 12,42 -5,48 -8,4 -17,2 -20,-3 z"
       id="path4000"
       inkscape:connector-curvature="0" />
    <path
       d="m 910,677 c 0,-14 31,-47 43,-47 16,0 5,40 -12,50 -26,13 -31,13 -31,-3 z"
       id="path4002"
       inkscape:connector-curvature="0" />
    <path
       d="m 3789,668 c 9,-25 31,-36 31,-16 0,15 -19,38 -32,38 -4,0 -4,-10 1,-22 z"
       id="path4004"
       inkscape:connector-curvature="0" />
    <path
       d="m 1391,657 c -11,-14 -10,-19 3,-32 20,-21 20,-29 1,-21 -16,6 -21,-9 -6,-18 18,-12 34,23 25,56 -8,27 -11,29 -23,15 z"
       id="path4006"
       inkscape:connector-curvature="0" />
    <path
       d="m 3130,650 c 0,-6 -11,-20 -25,-32 -14,-12 -25,-24 -25,-28 0,-9 -88,-100 -97,-100 -11,0 -63,-56 -63,-67 0,-6 -11,-15 -25,-21 -14,-6 -25,-18 -25,-27 0,-8 -7,-15 -15,-15 -8,0 -20,-9 -27,-20 -7,-11 -18,-20 -25,-20 -7,0 -19,-12 -27,-27 -8,-16 -15,-24 -16,-20 0,14 -40,-13 -40,-28 0,-8 -8,-15 -18,-15 -11,0 -27,-9 -37,-20 -10,-11 -26,-20 -36,-20 -9,0 -19,-3 -21,-7 -5,-12 -61,-49 -85,-57 -12,-4 -24,-13 -27,-21 -3,-8 -17,-15 -31,-15 -18,0 -25,-5 -25,-19 0,-10 7,-22 16,-25 22,-8 22,-8 20,11 -1,20 31,30 47,14 9,-9 8,-14 -3,-21 -12,-8 -9,-10 12,-10 26,0 99,36 106,52 2,4 9,8 17,8 7,0 18,7 26,16 10,13 10,17 -2,25 -21,13 -26,11 -32,-11 -5,-20 -45,-28 -60,-13 -10,10 23,42 38,37 7,-3 15,2 18,10 8,20 57,21 57,2 0,-27 21,-28 48,-4 15,14 35,28 45,31 9,4 17,11 17,16 0,6 20,20 45,31 25,11 45,25 45,31 0,14 76,89 90,89 6,0 10,7 10,15 0,9 11,20 25,25 14,5 25,16 25,25 0,9 -9,15 -25,15 -18,0 -25,-5 -25,-20 0,-24 -26,-38 -42,-22 -8,8 -3,21 18,46 16,19 32,35 36,35 15,2 148,154 148,170 0,6 -7,11 -15,11 -8,0 -15,-5 -15,-10 z M 2944,394 c 24,-9 19,-33 -9,-40 -15,-4 -25,-13 -25,-24 0,-11 -10,-20 -25,-24 -15,-4 -22,-11 -19,-20 4,-10 -5,-16 -25,-21 -17,-4 -31,-13 -31,-20 0,-8 -10,-17 -22,-21 -13,-4 -29,-15 -36,-25 -17,-24 -55,-26 -50,-2 3,16 39,42 86,63 12,5 22,16 22,25 0,9 11,20 24,24 13,5 26,17 29,25 4,9 13,16 20,16 7,0 20,11 27,25 15,28 13,27 34,19 z M 2580,105 c 15,-18 13,-21 -23,-30 -29,-8 -38,10 -15,33 16,16 23,15 38,-3 z"
       id="path4008"
       inkscape:connector-curvature="0" />
    <path
       d="m 1808,633 c 12,-8 22,-23 22,-33 0,-10 9,-20 20,-23 11,-3 24,-16 29,-29 12,-31 141,-164 141,-145 0,8 -9,22 -21,33 -12,10 -27,31 -35,46 -8,16 -19,28 -25,28 -12,0 -48,40 -49,53 0,15 -76,87 -91,86 -9,0 -6,-6 9,-16 z"
       id="path4010"
       inkscape:connector-curvature="0" />
    <path
       d="m 3733,602 c -14,-9 -6,-82 9,-82 5,0 7,-13 3,-30 -4,-17 -2,-30 3,-30 12,0 25,47 17,60 -3,5 -9,28 -13,50 -5,27 -11,37 -19,32 z"
       id="path4012"
       inkscape:connector-curvature="0" />
    <path
       d="m 1430,590 c 0,-23 21,-50 40,-50 29,0 25,15 -10,40 -16,12 -30,16 -30,10 z"
       id="path4014"
       inkscape:connector-curvature="0" />
    <path
       d="m 2095,590 c 10,-16 86,-62 92,-56 3,2 -14,18 -38,35 -42,31 -66,40 -54,21 z"
       id="path4016"
       inkscape:connector-curvature="0" />
    <path
       d="m 3520,591 c 0,-5 11,-11 25,-13 17,-4 25,-1 25,8 0,8 -11,14 -25,14 -14,0 -25,-4 -25,-9 z"
       id="path4018"
       inkscape:connector-curvature="0" />
    <path
       d="m 3390,563 c 0,-22 -7,-37 -20,-45 -16,-10 -20,-24 -20,-66 0,-43 -4,-55 -17,-58 -22,-6 -29,-64 -8,-64 15,0 19,10 36,98 6,34 15,62 20,62 15,0 31,68 20,87 -9,15 -10,13 -11,-14 z"
       id="path4020"
       inkscape:connector-curvature="0" />
    <path
       d="m 3216,560 c -8,-24 -13,-30 -56,-77 -11,-13 -20,-26 -20,-30 0,-8 -73,-73 -82,-73 -5,0 -8,-6 -8,-14 0,-7 -9,-16 -21,-19 -21,-6 -22,-34 -1,-30 6,2 9,-4 6,-12 -4,-9 0,-15 10,-15 11,0 16,9 16,29 0,25 3,28 22,23 17,-4 20,-2 15,11 -7,19 10,33 34,29 10,-2 19,6 22,20 4,13 22,47 42,77 24,35 35,63 33,80 l -3,26 -9,-25 z"
       id="path4022"
       inkscape:connector-curvature="0" />
    <path
       d="m 3120,545 c -5,-14 -16,-25 -24,-25 -9,0 -13,-6 -10,-15 4,-9 -3,-16 -20,-21 -29,-7 -36,-34 -8,-34 19,0 82,59 82,77 0,6 7,13 15,17 22,8 18,26 -5,26 -13,0 -24,-10 -30,-25 z"
       id="path4024"
       inkscape:connector-curvature="0" />
    <path
       d="m 1355,520 c -9,-27 6,-50 16,-24 4,10 8,25 8,32 1,20 -17,14 -24,-8 z"
       id="path4026"
       inkscape:connector-curvature="0" />
    <path
       d="m 1464,518 c -4,-6 -2,-14 4,-16 7,-2 13,-16 13,-30 1,-21 2,-23 6,-7 3,11 9,24 14,30 5,5 9,15 9,22 0,16 -36,17 -46,1 z"
       id="path4028"
       inkscape:connector-curvature="0" />
    <path
       d="m 2848,492 c 4,-20 2,-22 -22,-16 -28,7 -29,5 -20,-20 5,-12 11,-13 24,-6 13,7 21,7 25,0 11,-17 32,-11 38,11 3,11 15,23 26,26 41,10 23,29 -27,29 -45,-1 -48,-3 -44,-24 z"
       id="path4030"
       inkscape:connector-curvature="0" />
    <path
       d="m 2365,501 c -3,-6 4,-15 15,-21 24,-13 25,-60 1,-68 -10,-3 -12,2 -7,22 4,15 2,26 -4,26 -5,0 -10,-6 -11,-12 -1,-7 -2,-21 -3,-30 -2,-31 -21,-24 -24,10 -4,36 -17,42 -27,12 -7,-23 18,-75 40,-84 26,-9 72,-7 98,5 51,23 39,119 -15,119 -10,0 -18,7 -18,15 0,16 -35,21 -45,6 z m 85,-86 c 0,-28 -5,-35 -31,-44 -34,-12 -49,-7 -49,14 0,9 8,14 22,12 15,-1 23,4 26,18 10,56 32,57 32,0 z"
       id="path4032"
       inkscape:connector-curvature="0" />
    <path
       d="m 3566,494 c -3,-9 -6,-23 -6,-32 1,-15 3,-14 15,2 17,22 20,46 6,46 -5,0 -12,-7 -15,-16 z"
       id="path4034"
       inkscape:connector-curvature="0" />
    <path
       d="m 1538,486 c -24,-18 -23,-43 3,-57 20,-10 21,-9 15,16 -4,16 -2,33 5,41 14,18 0,18 -23,0 z"
       id="path4036"
       inkscape:connector-curvature="0" />
    <path
       d="m 1380,470 c 0,-11 7,-23 15,-26 8,-4 15,-12 15,-20 0,-8 6,-11 15,-8 21,9 18,26 -9,52 -29,27 -36,28 -36,2 z"
       id="path4038"
       inkscape:connector-curvature="0" />
    <path
       d="m 2745,420 c -4,-12 -24,-32 -46,-46 -22,-13 -37,-29 -34,-35 4,-5 17,-1 32,11 14,11 32,20 39,20 8,0 14,6 14,14 0,8 9,21 20,29 20,14 17,27 -6,27 -7,0 -16,-9 -19,-20 z"
       id="path4040"
       inkscape:connector-curvature="0" />
    <path
       d="m 2784,389 c -21,-26 -47,-48 -56,-49 -24,0 -23,-30 1,-30 10,0 21,9 24,20 3,12 14,20 26,20 14,0 21,6 21,20 0,13 9,22 25,26 15,4 25,13 25,23 0,31 -26,19 -66,-30 z"
       id="path4042"
       inkscape:connector-curvature="0" />
    <path
       d="m 1674,409 c -4,-7 1,-16 10,-21 9,-5 16,-14 16,-19 0,-6 8,-21 19,-34 13,-18 21,-21 30,-12 15,15 14,37 -3,37 -7,0 -19,14 -26,30 -13,31 -33,39 -46,19 z"
       id="path4044"
       inkscape:connector-curvature="0" />
    <path
       d="m 1406,383 c -12,-12 -6,-23 13,-23 11,0 21,-5 23,-12 3,-8 6,-9 11,-1 7,12 -37,46 -47,36 z"
       id="path4046"
       inkscape:connector-curvature="0" />
    <path
       d="m 1580,384 c 0,-3 7,-12 15,-21 8,-8 13,-19 10,-24 -4,-5 1,-9 9,-9 8,0 21,-10 27,-22 12,-23 28,-38 42,-38 14,0 7,16 -22,48 -16,17 -32,41 -36,52 -5,17 -45,30 -45,14 z"
       id="path4048"
       inkscape:connector-curvature="0" />
    <path
       d="m 3466,375 c -6,-17 2,-45 14,-45 4,0 7,13 6,30 -1,32 -10,39 -20,15 z"
       id="path4050"
       inkscape:connector-curvature="0" />
    <path
       d="m 1980,350 c 0,-5 11,-17 25,-26 13,-9 27,-24 30,-35 4,-10 11,-19 16,-19 5,0 36,-25 67,-55 31,-30 66,-64 78,-75 12,-11 24,-20 28,-20 15,0 76,-56 77,-70 0,-8 5,-4 10,9 6,15 14,21 25,17 12,-4 14,-1 9,14 -5,16 -2,20 14,20 23,0 27,10 10,27 -15,15 -61,3 -67,-19 -3,-12 -10,-17 -19,-14 -8,3 -18,6 -23,6 -5,0 -12,9 -15,20 -3,11 -13,20 -22,20 -8,0 -17,9 -20,20 -3,11 -10,20 -15,20 -6,0 -28,16 -49,35 -22,19 -44,35 -49,35 -6,0 -10,7 -10,15 0,8 -9,20 -20,27 -28,18 -25,38 5,38 20,0 27,-6 31,-30 4,-17 15,-32 26,-36 26,-8 38,5 15,17 -9,6 -17,15 -17,22 0,7 -12,21 -27,31 -21,15 -29,17 -45,7 -13,-8 -24,-8 -38,-1 -23,13 -30,13 -30,0 z"
       id="path4052"
       inkscape:connector-curvature="0" />
    <path
       d="m 2601,310 c -19,-9 -39,-23 -45,-31 -6,-8 -24,-20 -39,-27 -15,-6 -25,-17 -22,-22 10,-17 23,-12 65,26 44,40 70,40 63,0 -4,-19 -1,-26 10,-26 18,0 33,50 17,60 -6,4 -8,14 -4,23 8,21 -1,20 -45,-3 z"
       id="path4054"
       inkscape:connector-curvature="0" />
    <path
       d="m 2194,292 c -4,-19 -13,-32 -21,-32 -10,0 -13,-6 -9,-16 3,-9 6,-18 6,-20 0,-2 6,-4 14,-4 8,0 16,17 20,47 7,53 -1,72 -10,25 z"
       id="path4056"
       inkscape:connector-curvature="0" />
    <path
       d="m 2672,293 c 5,-25 28,-28 28,-4 0,12 -6,21 -16,21 -9,0 -14,-7 -12,-17 z"
       id="path4058"
       inkscape:connector-curvature="0" />
    <path
       d="m 1672,251 c -10,-6 -10,-11 3,-21 14,-12 18,-11 25,0 15,24 -2,38 -28,21 z"
       id="path4060"
       inkscape:connector-curvature="0" />
    <path
       d="m 2573,233 c -28,-19 -29,-33 -3,-33 20,0 46,35 33,43 -5,3 -18,-2 -30,-10 z"
       id="path4062"
       inkscape:connector-curvature="0" />
    <path
       d="m 2420,195 c -25,-13 -39,-24 -31,-25 9,0 11,-8 7,-24 -4,-15 0,-28 9,-36 8,-7 15,-9 16,-4 7,76 19,92 54,76 37,-17 65,-15 65,4 0,12 -6,15 -25,10 -18,-5 -25,-2 -25,9 0,21 -17,18 -70,-10 z"
       id="path4064"
       inkscape:connector-curvature="0" />
  </g>
  <path
     style="color:#000000;clip-rule:nonzero;display:inline;overflow:visible;visibility:visible;opacity:1;isolation:auto;mix-blend-mode:normal;color-interpolation:sRGB;color-interpolation-filters:linearRGB;solid-color:#000000;solid-opacity:1;fill:none;fill-opacity:1;fill-rule:evenodd;stroke:#000000;stroke-width:85.03936768;stroke-linecap:butt;stroke-linejoin:miter;stroke-miterlimit:4;stroke-dasharray:none;stroke-dashoffset:0;stroke-opacity:1;color-rendering:auto;image-rendering:auto;shape-rendering:auto;text-rendering:auto;enable-background:accumulate"
     d="m 13680,81865.824 2240,3360 5280,6080 4080,4800 5280,3040 7040,3519.996 12400,2880 15760,960 8080,-2160 11280,-7119.996 7520,-6240 6080,-7280 0,-76719.9972 -87440,0 0,66639.9992 z"
     id="world_boundary"
     inkscape:connector-curvature="0"
     inkscape:label="#path3693" />
  <path
     style="color:#000000;clip-rule:nonzero;display:inline;overflow:visible;visibility:visible;opacity:1;isolation:auto;mix-blend-mode:normal;color-interpolation:sRGB;color-interpolation-filters:linearRGB;solid-color:#000000;solid-opacity:1;fill:none;fill-opacity:1;fill-rule:evenodd;stroke:#000000;stroke-width:85.03936768;stroke-linecap:butt;stroke-linejoin:miter;stroke-miterlimit:4;stroke-dasharray:none;stroke-dashoffset:0;stroke-opacity:1;color-rendering:auto;image-rendering:auto;shape-rendering:auto;text-rendering:auto;enable-background:accumulate"
     d="m 57400,11265.826 -1680,240 -1840,280 -2040,320 -1800,680 -1360,800 -1320,760 -1920,1200 -1360,1000 -2480,1840 -1360,1400 -600,960 -760,1240 -960,1520 -320,1240 -400,1560 -400,1520 -400,1720 -120,2320 -120,2480 -440,1680 -840,720 -840,-80 -200,760 240,680 0,1440 480,1360 c 0,0 -80,680 -160,960 -80,280 -200,1840 -200,1840 l 320,2400 520,1040 600,160 480,-480 440,-440 480,-120 360,800 200,920 240,1600 320,1520 400,1680 560,1840 640,1800 440,1760 160,2560 -80,1680 -160,1800 -160,1440 -160,1560 -80,1600 -320,2280 80,1520 1040,760 920,1280 1320,1200 1360,1920 1320,1000 1440,1879.998 1840,2520 1360,1880 1760,2200 1200,960 1560,-40 2360,-520 1680,-1920 1680,-1200 1440,-1040 1320,-1480 1200,-1320 -200,-1079.998 -200,-1760 240,-840 1440,-1880 960,-1360 1160,-1240 640,-1280 360,-1400 440,-2600 -280,-2240 80,-2520 880,-2520 760,-1760 640,-2640 1360,-1920 1840,-920 1160,-1080 1120,-1960 880,-1880 240,-1440 160,-1920 -280,-2000 -600,-1200 160,-1160 200,-1160 -40,-960 -40,-1680 240,-560 200,-1360 -360,-1800 -400,-3080 -40,-3240 -240,-1160 -360,-1120 -720,-800 -880,-800 -1960,-1520 -2680,-2720 -2240,-2080 -1480,-1440 -2560,-1120 -2280,-840 -2480,-680 -440,0 -320,320 240,440 400,40 680,120 1000,360 2200,1040 1880,1000 1600,1400 2920,2000 2040,1800 3120,3320 1240,2560 840,2640 320,2800 0,1680 -320,3080 -720,2400 -280,1800 -440,1680 -320,1760 -600,2160 -1400,640 -1960,-760 -1760,-1160 -2320,520 -1520,-40 -2120,-520 -2640,-880 -760,-960 -1320,-2160 160,-1560 1480,-1640 1520,-560 2360,-600 1680,-720 2960,-120 1320,560 1080,1680 320,1600 80,2320 -800,1040 -1600,80 -2560,-480 -1320,-160 -1480,-480 -1360,-520 -1680,0 -2080,-160 -2400,-440 -2240,-80 -2160,-280 -1960,200 -1880,0 -2080,-80 -1720,-160 -1080,-680 -520,-1440 -800,-1800 0,-1880 1200,-600 1960,-680 2040,80 2160,-80 2880,360 2800,2280 -440,600 -1120,360 -2120,-80 -1360,-320 -1240,-40 -1280,0 -1520,0 -1720,280 -760,600 -80,600 640,600 1160,-400 1320,-560 1800,-320 1080,40 1400,280 1120,440 1240,1200 360,1680 -560,920 -1160,560 -2480,560 -1640,240 -160,2360 640,1600 920,1160 -960,1080 -1200,1880 -800,1200 240,1360 640,480 1480,-1120 1240,-1120 0,-760 200,-520 640,-40 680,800 1720,880 680,280 1360,400 1360,680 840,-160 720,-440 800,-280 1400,-40 1320,-160 960,640 440,920 880,800 -440,1000 -800,200 -2400,0 -1520,-120 -2880,-200 c 0,0 -3320,-240 -3520,-200 -200,40 -3160,-200 -3160,-200 l -2640,320 -40,1200 640,1560 1000,120 1600,240 1560,-160 1720,-40 1560,-40 1160,160 2440,200 2240,320 1120,840 160,2760 -240,2960 -480,1360 -1080,1120 -1640,640 -1520,-240 -2000,-120 -2320,-520 -1680,-400 -2320,-520 -1080,880 -280,1480 -560,1480 -400,1440 1280,560 1320,920 1920,-120 1960,560 2160,440 c 0,0 1080,-80 1240,-80 160,0 1600,-40 1600,-40 l 1800,-120"
     id="linear_trajectory"
     inkscape:connector-curvature="0"
     inkscape:label="#path3695" />
</svg>
