<?xml version="1.0" encoding="UTF-8" standalone="no"?>
<!-- Created with Inkscape (http://www.inkscape.org/) -->

<svg
   xmlns:dc="http://purl.org/dc/elements/1.1/"
   xmlns:cc="http://creativecommons.org/ns#"
   xmlns:rdf="http://www.w3.org/1999/02/22-rdf-syntax-ns#"
   xmlns:svg="http://www.w3.org/2000/svg"
   xmlns="http://www.w3.org/2000/svg"
   xmlns:sodipodi="http://sodipodi.sourceforge.net/DTD/sodipodi-0.dtd"
   xmlns:inkscape="http://www.inkscape.org/namespaces/inkscape"
   width="1000cm"
   height="1000cm"
   viewBox="0 0 35433.071 35433.072"
   id="svg2"
   version="1.1"
   inkscape:version="0.91 r13725"
   sodipodi:docname="map1.svg">
  <defs
     id="defs4" />
  <sodipodi:namedview
     id="base"
     pagecolor="#ffffff"
     bordercolor="#666666"
     borderopacity="1.0"
     inkscape:pageopacity="0.0"
     inkscape:pageshadow="2"
     inkscape:zoom="0.04375"
     inkscape:cx="3888.5267"
     inkscape:cy="20075.061"
     inkscape:document-units="px"
     inkscape:current-layer="layer1"
     showgrid="false"
     units="m"
     inkscape:window-width="3838"
     inkscape:window-height="2132"
     inkscape:window-x="0"
     inkscape:window-y="26"
     inkscape:window-maximized="0" />
  <metadata
     id="metadata7">
    <rdf:RDF>
      <cc:Work
         rdf:about="">
        <dc:format>image/svg+xml</dc:format>
        <dc:type
           rdf:resource="http://purl.org/dc/dcmitype/StillImage" />
        <dc:title></dc:title>
      </cc:Work>
    </rdf:RDF>
  </metadata>
  <g
     inkscape:label="Layer 1"
     inkscape:groupmode="layer"
     id="layer1"
     transform="translate(0,34380.709)">
    <path
       style="fill:none;fill-rule:evenodd;stroke:#000000;stroke-width:106.29920959;stroke-linecap:butt;stroke-linejoin:miter;stroke-miterlimit:4;stroke-dasharray:none;stroke-opacity:1"
       d="m 7408.2492,-15628.997 -5348.571,0 0,-5440 5165.714,0 c 0,0 -4480,-2148.571 -2148.571,-3611.428 2331.428,-1462.857 2056.381,-7674.519 2056.381,-7674.519 l 6537.9048,0 7270.183,4197.442 5986.96,0 4047.11,4047.11 c 0,0 3267.176,-707.176 3175.747,7841.395 -91.429,8548.5719 -2151.693,8030.2272 -2151.693,8030.2272 l -2543.326,2543.3257 -7236.41,0 0,-3396.4097 -6582.857,0 0,7679.9998 -13302.8578,0 0,-9417.143 c 0,0 577.2789,-3958.298 1975.4614,-2057.142 1400.5041,1904.313 -234.2809,2003.585 2778.8246,1874.285 685.0835,-29.399 320,-4617.143 320,-4617.143 z"
       id="world_boundary"
       inkscape:connector-curvature="0"
       sodipodi:nodetypes="ccccscccccsccccccccssc"
       inkscape:label="#path4161" />
    <rect
       style="stroke-width:106.29920959;stroke-miterlimit:4;stroke-dasharray:none"
       id="rect4165"
       width="2364.7893"
       height="2183.6763"
       x="2452.7695"
       y="-3705.6182"
       ry="0" />
    <rect
       style="stroke-width:106.29920959;stroke-miterlimit:4;stroke-dasharray:none"
       id="rect4169"
       width="8320"
       height="3862.8572"
       x="2560"
       y="-8136.2109" />
    <path
       style="fill:none;fill-rule:evenodd;stroke:#000000;stroke-width:106.2992126;stroke-linecap:butt;stroke-linejoin:miter;stroke-opacity:1;stroke-miterlimit:4;stroke-dasharray:none"
       d="m 15634.286,-9119.067 0,-1691.429"
       id="path4171"
       inkscape:connector-curvature="0" />
    <path
       style="color:#000000;clip-rule:nonzero;display:inline;overflow:visible;visibility:visible;opacity:1;isolation:auto;mix-blend-mode:normal;color-interpolation:sRGB;color-interpolation-filters:linearRGB;solid-color:#000000;solid-opacity:1;fill:none;fill-opacity:1;fill-rule:evenodd;stroke:#000000;stroke-width:106.29920959;stroke-linecap:butt;stroke-linejoin:miter;stroke-miterlimit:4;stroke-dasharray:none;stroke-dashoffset:0;stroke-opacity:1;color-rendering:auto;image-rendering:auto;shape-rendering:auto;text-rendering:auto;enable-background:accumulate"
       d="m 15634.286,-10856.21 c -224.689,60.205 -5668.5717,0 -5668.5717,0"
       id="path4175"
       inkscape:connector-curvature="0" />
    <path
       style="color:#000000;clip-rule:nonzero;display:inline;overflow:visible;visibility:visible;opacity:1;isolation:auto;mix-blend-mode:normal;color-interpolation:sRGB;color-interpolation-filters:linearRGB;solid-color:#000000;solid-opacity:1;fill:none;fill-opacity:1;fill-rule:evenodd;stroke:#000000;stroke-width:106.29920959;stroke-linecap:butt;stroke-linejoin:miter;stroke-miterlimit:4;stroke-dasharray:none;stroke-dashoffset:0;stroke-opacity:1;color-rendering:auto;image-rendering:auto;shape-rendering:auto;text-rendering:auto;enable-background:accumulate"
       d="m 12045.714,-16341.924 c 0,0 -2559.9997,2560 -2559.9997,-1348.572 0,-3908.571 2468.5717,-1348.571 2468.5717,-1348.571 z"
       id="path4177"
       inkscape:connector-curvature="0" />
    <path
       style="color:#000000;clip-rule:nonzero;display:inline;overflow:visible;visibility:visible;opacity:1;isolation:auto;mix-blend-mode:normal;color-interpolation:sRGB;color-interpolation-filters:linearRGB;solid-color:#000000;solid-opacity:1;fill:none;fill-opacity:1;fill-rule:evenodd;stroke:#000000;stroke-width:106.29920959;stroke-linecap:butt;stroke-linejoin:miter;stroke-miterlimit:4;stroke-dasharray:none;stroke-dashoffset:0;stroke-opacity:1;color-rendering:auto;image-rendering:auto;shape-rendering:auto;text-rendering:auto;enable-background:accumulate"
       d="m 2400,-20913.353 844.7839,487.736 2675.2161,0 982.6246,-567.318 -4571.196,0 z"
       id="path4179"
       inkscape:connector-curvature="0" />
    <path
       style="color:#000000;clip-rule:nonzero;display:inline;overflow:visible;visibility:visible;opacity:1;isolation:auto;mix-blend-mode:normal;color-interpolation:sRGB;color-interpolation-filters:linearRGB;solid-color:#000000;solid-opacity:1;fill:none;fill-opacity:1;fill-rule:evenodd;stroke:#000000;stroke-width:114.11167145;stroke-linecap:butt;stroke-linejoin:miter;stroke-miterlimit:4;stroke-dasharray:none;stroke-dashoffset:0;stroke-opacity:1;color-rendering:auto;image-rendering:auto;shape-rendering:auto;text-rendering:auto;enable-background:accumulate"
       d="m 2395.8968,-15846.615 870.6854,-545.343 2757.2388,0 c 1217.1915,741.575 817.5663,508.706 1012.7525,634.324 l -4711.3505,0 z"
       id="path4179-3"
       inkscape:connector-curvature="0"
       sodipodi:nodetypes="cccccc" />
    <rect
       style="stroke-width:106.29920959;stroke-miterlimit:4;stroke-dasharray:none"
       id="rect4196"
       width="5165.7144"
       height="2582.8572"
       x="16685.715"
       y="-19221.926" />
    <path
       style="color:#000000;clip-rule:nonzero;display:inline;overflow:visible;visibility:visible;opacity:1;isolation:auto;mix-blend-mode:normal;color-interpolation:sRGB;color-interpolation-filters:linearRGB;solid-color:#000000;solid-opacity:1;fill:none;fill-opacity:1;fill-rule:evenodd;stroke:#000000;stroke-width:106.29920959;stroke-linecap:butt;stroke-linejoin:miter;stroke-miterlimit:4;stroke-dasharray:none;stroke-dashoffset:0;stroke-opacity:1;color-rendering:auto;image-rendering:auto;shape-rendering:auto;text-rendering:auto;enable-background:accumulate"
       d="m 11931.429,-19016.21 0,-2720"
       id="path4198"
       inkscape:connector-curvature="0" />
    <path
       style="color:#000000;clip-rule:nonzero;display:inline;overflow:visible;visibility:visible;opacity:1;isolation:auto;mix-blend-mode:normal;color-interpolation:sRGB;color-interpolation-filters:linearRGB;solid-color:#000000;solid-opacity:1;fill:none;fill-opacity:1;fill-rule:evenodd;stroke:#000000;stroke-width:106.29920959;stroke-linecap:butt;stroke-linejoin:miter;stroke-miterlimit:4;stroke-dasharray:none;stroke-dashoffset:0;stroke-opacity:1;color-rendering:auto;image-rendering:auto;shape-rendering:auto;text-rendering:auto;enable-background:accumulate"
       d="m 12068.571,-16319.067 0,2080"
       id="path4200"
       inkscape:connector-curvature="0" />
    <path
       style="color:#000000;clip-rule:nonzero;display:inline;overflow:visible;visibility:visible;opacity:1;isolation:auto;mix-blend-mode:normal;color-interpolation:sRGB;color-interpolation-filters:linearRGB;solid-color:#000000;solid-opacity:1;fill:none;fill-opacity:1;fill-rule:evenodd;stroke:#000000;stroke-width:78.91526794;stroke-linecap:butt;stroke-linejoin:miter;stroke-miterlimit:4;stroke-dasharray:none;stroke-dashoffset:0;stroke-opacity:1;color-rendering:auto;image-rendering:auto;shape-rendering:auto;text-rendering:auto;enable-background:accumulate"
       d="m 31332.71,-12412.094 c 0,0 2323.226,-2175.702 1183.935,-4487.509 -1139.289,-2311.807 -1093.154,-2308.164 -1093.154,-2308.164 z"
       id="path4204"
       inkscape:connector-curvature="0" />
    <rect
       style="stroke-width:106.29920959;stroke-miterlimit:4;stroke-dasharray:none"
       id="rect4206"
       width="937.14288"
       height="937.14288"
       x="17074.287"
       y="-16181.924" />
    <rect
       style="stroke-width:106.29920959;stroke-miterlimit:4;stroke-dasharray:none"
       id="rect4206-6"
       width="937.14288"
       height="937.14288"
       x="18640"
       y="-16239.066" />
    <rect
       style="stroke-width:106.29920959;stroke-miterlimit:4;stroke-dasharray:none"
       id="rect4206-6-7"
       width="937.14288"
       height="937.14288"
       x="20148.57"
       y="-16261.924" />
    <rect
       style="stroke-width:106.29920959;stroke-miterlimit:4;stroke-dasharray:none"
       id="rect4206-6-5"
       width="937.14288"
       height="937.14288"
       x="22228.57"
       y="-18364.781" />
    <rect
       style="stroke-width:106.29920959;stroke-miterlimit:4;stroke-dasharray:none"
       id="rect4206-6-3"
       width="937.14288"
       height="937.14288"
       x="20422.857"
       y="-20353.354" />
    <rect
       style="stroke-width:106.29920959;stroke-miterlimit:4;stroke-dasharray:none"
       id="rect4206-6-56"
       width="937.14288"
       height="937.14288"
       x="18845.715"
       y="-20399.068" />
    <rect
       style="stroke-width:106.29920959;stroke-miterlimit:4;stroke-dasharray:none"
       id="rect4206-6-2"
       width="937.14288"
       height="937.14288"
       x="17222.857"
       y="-20399.066" />
    <rect
       style="stroke-width:106.29920959;stroke-miterlimit:4;stroke-dasharray:none"
       id="rect4206-6-9"
       width="937.14288"
       height="937.14288"
       x="15508.57"
       y="-18273.352" />
    <path
       style="color:#000000;clip-rule:nonzero;display:inline;overflow:visible;visibility:visible;opacity:1;isolation:auto;mix-blend-mode:normal;color-interpolation:sRGB;color-interpolation-filters:linearRGB;solid-color:#000000;solid-opacity:1;fill:none;fill-opacity:1;fill-rule:evenodd;stroke:#000000;stroke-width:106.29920959;stroke-linecap:butt;stroke-linejoin:miter;stroke-miterlimit:4;stroke-dasharray:none;stroke-dashoffset:0;stroke-opacity:1;color-rendering:auto;image-rendering:auto;shape-rendering:auto;text-rendering:auto;enable-background:accumulate"
       d="m 25062.542,-5869.8477 c 0,0 -416.159,-3087.788 785.687,-5338.5223 1201.845,-2250.735 1691.349,5234.1113 473.402,5301.4793 -1217.947,67.369 -1259.089,37.043 -1259.089,37.043 z"
       id="path4270"
       inkscape:connector-curvature="0" />
    <path
       style="color:#000000;clip-rule:nonzero;display:inline;overflow:visible;visibility:visible;opacity:1;isolation:auto;mix-blend-mode:normal;color-interpolation:sRGB;color-interpolation-filters:linearRGB;solid-color:#000000;solid-opacity:1;fill:none;fill-opacity:1;fill-rule:evenodd;stroke:#000000;stroke-width:106.29920959;stroke-linecap:butt;stroke-linejoin:miter;stroke-miterlimit:4;stroke-dasharray:none;stroke-dashoffset:0;stroke-opacity:1;color-rendering:auto;image-rendering:auto;shape-rendering:auto;text-rendering:auto;enable-background:accumulate"
       d="m 28868.571,-26261.924 c 0,0 -2628.571,-2194.286 -2628.571,-731.429 0,1462.857 -331.539,1237.319 -331.539,1237.319 l -5474.175,0 -6909.276,-3989.073 -1306.931,-754.556 -3440.9362,0 c 0,0 1325.7142,3049.167 -182.8571,4877.739 C 7085.7143,-23793.353 5920,-23176.21 6560,-22604.782 c 640,571.429 587.8394,1522.681 587.8394,1522.681"
       id="path4272"
       inkscape:connector-curvature="0" />
    <path
       style="color:#000000;clip-rule:nonzero;display:inline;overflow:visible;visibility:visible;opacity:1;isolation:auto;mix-blend-mode:normal;color-interpolation:sRGB;color-interpolation-filters:linearRGB;solid-color:#000000;solid-opacity:1;fill:none;fill-opacity:1;fill-rule:evenodd;stroke:#000000;stroke-width:106.29920959;stroke-linecap:butt;stroke-linejoin:miter;stroke-miterlimit:4;stroke-dasharray:none;stroke-dashoffset:0;stroke-opacity:1;color-rendering:auto;image-rendering:auto;shape-rendering:auto;text-rendering:auto;enable-background:accumulate"
       d="m 25942.857,-23336.21 -6697.143,0 -7027.252,-4057.186 0,2137.186 -355.605,3611.428"
       id="path4274"
       inkscape:connector-curvature="0" />
    <path
       style="color:#000000;clip-rule:nonzero;display:inline;overflow:visible;visibility:visible;opacity:1;isolation:auto;mix-blend-mode:normal;color-interpolation:sRGB;color-interpolation-filters:linearRGB;solid-color:#000000;solid-opacity:1;fill:none;fill-opacity:1;fill-rule:evenodd;stroke:#000000;stroke-width:106.29920959;stroke-linecap:butt;stroke-linejoin:miter;stroke-miterlimit:4;stroke-dasharray:none;stroke-dashoffset:0;stroke-opacity:1;color-rendering:auto;image-rendering:auto;shape-rendering:auto;text-rendering:auto;enable-background:accumulate"
       d="m 2468.5714,-18261.924 4662.8572,-45.715 1645.7142,2834.286 -68.5714,4342.857 -937.1428,891.429 -2102.8572,342.857 -1097.1428,-434.286 -320,-502.857 -480,-434.286 -457.1429,45.715 -205.7143,571.428 0,731.429 365.7143,662.857 822.8572,160 1645.7142,45.714 4159.9999,-228.571 1257.143,320 914.286,1005.714 137.143,1371.429 114.285,1782.857 -228.571,914.285 -800,457.143 -4274.2859,-45.714 -891.4285,160 -320,525.714 -45.7143,480 274.2857,320 5120,0 868.571,-114.285 777.143,-342.858 571.429,-640 434.286,-1097.142 22.857,-3497.143 -274.286,-937.143 -777.143,-731.429 -1074.286,-251.428 -1645.714,-274.286 -548.5713,-251.429 -434.2857,-525.714 -114.2857,-800 365.7143,-662.857 708.5714,-822.857 1028.571,-114.286 1257.143,0 640,-411.428 457.143,-685.715 45.714,-5051.428 137.143,-1120 388.572,-937.143 800,-548.572 1234.285,-182.857 2628.572,-68.571 2674.286,205.714 1280,45.714 1531.428,708.572 525.714,1737.143 -68.571,2102.857 -960,1645.714 -1760,1508.572 -2948.571,320 -1028.572,388.571 -525.714,845.714 -182.857,891.429 205.714,845.714 571.429,457.143 800,68.571 731.428,-205.714 1005.714,-365.714 1005.715,-45.714 731.428,434.285 c 0,0 617.143,320 731.429,411.429 114.286,91.428 868.571,-205.714 868.571,-205.714 l 548.572,-1302.858 891.428,-1051.428 1188.572,-365.714 1005.714,251.428 525.714,1005.714 228.572,1211.429 0,800 228.571,868.571 640,434.286 754.286,-68.571 525.714,-457.143 251.429,-754.286 -22.857,-754.286 -571.429,-777.142 -320,-754.286 -22.857,-1622.857 -45.714,-1211.429 -45.715,-1188.571 91.429,-1188.572 -22.857,-1302.857 274.285,-1188.571 68.572,-1257.143 -274.286,-1051.429 -571.428,-891.428 -777.143,-868.572 -1074.286,-662.857 -1485.714,-114.286 -1417.143,-45.714 -1645.714,45.714 -982.858,0 -1371.428,68.572 -937.143,-137.143 -868.571,-434.286 -1097.143,-708.571 -1120,-685.714 -800,-480 -982.857,-571.429 -662.858,-548.571 -868.571,-594.286 -777.143,-205.714 -525.714,114.285 -548.572,480 -320,731.429 -160,685.714 -160,754.286 -251.428,822.857 -365.714,937.143 -228.5719,708.571 -342.8571,800 -365.7143,1028.572 -594.2857,1005.714 -617.1429,662.857 -754.2857,297.143 -1074.2857,297.143 -1097.1429,137.143 L 2720,-19381.924"
       id="linear_trajectory"
       inkscape:connector-curvature="0"
       inkscape:label="#path4276" />
  </g>
</svg>
